<svg version="1.1" id="Layer_1" xmlns="http://www.w3.org/2000/svg" xmlns:xlink="http://www.w3.org/1999/xlink" x="0px" y="0px"
	 width="100%" viewBox="0 0 500 161" enable-background="new 0 0 500 161" xml:space="preserve">
<path fill="#000000" opacity="1.000000" stroke="none" 
	d="
M320.000000,162.000000 
	C213.333374,162.000000 107.166740,162.000000 1.000085,162.000000 
	C1.000057,108.333389 1.000057,54.666782 1.000028,1.000129 
	C167.666550,1.000086 334.333099,1.000086 500.999756,1.000043 
	C500.999817,54.666531 500.999817,108.333061 500.999908,161.999786 
	C440.833344,162.000000 380.666656,162.000000 320.000000,162.000000 
M290.360413,38.815300 
	C277.561707,36.165779 265.965363,38.146458 256.631897,48.353912 
	C252.684433,39.392361 250.302689,38.312408 241.000168,40.818691 
	C241.000168,42.768612 240.982727,44.762238 241.002792,46.755486 
	C241.332474,79.508812 241.734863,112.261734 241.913071,145.015869 
	C241.935043,149.051620 243.218735,150.547943 247.111832,150.019928 
	C248.093445,149.886810 249.126434,149.877335 250.105026,150.020950 
	C254.608994,150.681900 256.170013,149.068939 256.139984,144.286819 
	C256.083160,135.241165 256.855194,126.190292 257.242249,117.999939 
	C264.020325,117.999939 270.447723,117.971001 276.874786,118.006516 
	C287.289337,118.064064 295.228912,113.010742 300.890991,104.941605 
	C311.046173,90.469223 310.609802,74.184334 307.294952,57.737213 
	C305.447449,48.570633 299.906586,42.351681 290.360413,38.815300 
M25.084839,17.387411 
	C22.429790,20.135134 19.162834,22.511362 17.228895,25.696875 
	C10.041478,37.535706 11.826406,53.231052 25.941339,62.967316 
	C34.364861,68.777725 43.038895,74.229988 51.377666,80.156525 
	C57.166847,84.271019 60.544529,93.433296 53.361908,100.282433 
	C46.648121,106.684502 38.742863,105.465843 31.043144,104.379013 
	C25.438549,103.587914 20.044430,101.305679 14.663279,99.719719 
	C14.002233,101.897095 13.293761,103.267166 13.207895,104.675209 
	C12.763917,111.955605 11.790432,115.081261 20.001770,115.962090 
	C29.625072,116.994370 39.391365,118.385185 48.968712,117.739082 
	C61.815773,116.872383 74.230049,104.281143 74.098289,90.471390 
	C73.994987,79.644661 67.627441,72.935097 59.965008,67.069000 
	C51.444736,60.546169 42.159401,54.986221 33.904942,48.162910 
	C25.649237,41.338573 30.262506,28.412483 39.951870,26.307932 
	C45.120914,25.185204 50.890385,25.966696 56.245266,26.805483 
	C61.435612,27.618496 66.442062,29.605490 72.000053,31.213051 
	C72.000053,27.728115 71.789101,24.731447 72.052063,21.776960 
	C72.401070,17.855829 71.230362,15.292988 67.004738,14.967015 
	C58.014294,14.273478 49.011459,13.106339 40.027428,13.219860 
	C35.218636,13.280622 30.438353,15.597805 25.084839,17.387411 
M158.926208,53.421947 
	C157.284103,56.909378 154.711166,60.265713 154.197632,63.912083 
	C153.191513,71.055923 153.058212,78.361511 153.060089,85.600029 
	C153.063477,98.740578 163.181732,113.448746 175.780334,116.824394 
	C181.217224,118.281136 187.209549,117.967545 192.946655,117.935715 
	C203.623734,117.876480 212.088181,113.328209 218.162552,104.462891 
	C228.306717,89.657806 228.356308,73.706642 222.132996,57.796585 
	C215.842667,41.715260 194.483215,32.395367 178.344482,38.424702 
	C170.807266,41.240555 163.337982,45.045700 158.926208,53.421947 
M373.999847,43.661266 
	C373.999908,56.158554 373.925476,68.656464 374.030884,81.152870 
	C374.085175,87.591270 372.297119,93.270287 368.222687,98.282776 
	C362.894775,104.837334 354.460602,107.779243 347.204865,105.034485 
	C339.643829,102.174240 340.052094,95.440765 339.988251,89.008553 
	C339.827332,72.799957 339.607269,56.591946 339.410034,40.308113 
	C334.082336,40.308113 329.692169,40.308113 325.003387,40.308113 
	C325.003387,59.251160 324.694458,77.895287 325.151215,96.520630 
	C325.341278,104.272758 327.433746,112.132843 335.461823,115.716438 
	C339.307953,117.433281 343.943756,117.952332 348.226410,117.971016 
	C353.244049,117.992897 358.498138,117.587662 363.216980,116.044556 
	C367.312042,114.705421 370.803467,111.520363 374.620239,109.114212 
	C376.029602,116.200821 376.826447,118.547241 387.778351,116.248207 
	C387.778351,90.957817 387.778351,65.676407 387.778351,40.136337 
	C384.201447,39.744370 380.800323,39.442154 377.420990,38.980446 
	C374.376434,38.564472 373.637878,40.081459 373.999847,43.661266 
M442.340515,74.052933 
	C436.161682,70.469086 429.691803,67.292564 423.906433,63.158127 
	C420.051697,60.403408 419.901245,55.767357 423.696747,53.209923 
	C427.062500,50.942028 431.806030,49.392574 435.784729,49.681614 
	C441.300385,50.082306 446.655548,52.552132 452.113495,54.008354 
	C453.160278,54.287647 454.902985,54.442375 455.406036,53.860462 
	C458.057434,50.793537 455.487518,40.947830 451.548279,40.392254 
	C442.802002,39.158710 433.846100,37.665951 425.146484,38.374954 
	C417.598816,38.990082 410.954132,43.617996 408.084534,51.359959 
	C404.053192,62.236263 408.970856,72.640312 420.196259,78.691208 
	C426.773712,82.236679 433.081512,86.281357 439.647125,89.850327 
	C443.027802,91.688004 444.847443,94.590813 443.785156,97.857414 
	C442.878387,100.645851 440.602051,104.117531 438.117279,105.003593 
	C434.246643,106.383873 429.581177,106.529976 425.446503,105.908630 
	C420.883148,105.222862 416.511078,103.156746 412.107697,101.549438 
	C408.825134,100.351227 407.125854,100.965347 406.959778,104.826485 
	C406.580566,113.644653 406.547058,114.543961 414.975922,116.799156 
	C424.455261,119.335411 434.442108,119.472565 443.864777,116.796577 
	C455.459290,113.503799 462.011902,99.517357 457.844116,88.728699 
	C455.134491,81.714561 448.985504,78.118874 442.340515,74.052933 
M86.000046,79.456444 
	C86.335403,83.373192 86.145874,87.423508 87.102318,91.182213 
	C90.252945,103.563660 96.386742,113.891426 109.762161,117.086983 
	C115.264816,118.401642 121.292473,118.354538 126.977417,117.820564 
	C132.026642,117.346313 137.113647,115.773933 141.811813,113.800339 
	C143.693893,113.009712 145.320007,109.980186 145.717789,107.731827 
	C146.138062,105.356270 144.956085,102.697250 144.323303,99.369537 
	C141.557098,100.599632 138.961929,101.809837 136.323608,102.917229 
	C124.488441,107.884827 116.017532,106.988380 108.138123,98.743599 
	C100.134094,90.368431 100.757866,66.727661 105.914024,58.225483 
	C110.734291,50.277172 121.966026,48.632648 128.254929,51.225143 
	C129.886353,51.897671 131.662048,53.408405 132.328934,54.977287 
	C133.592972,57.950974 135.706833,58.334774 138.291061,57.957523 
	C140.826233,57.587437 143.323196,56.955715 145.797684,56.446888 
	C146.392365,46.292961 142.782211,40.907726 133.193588,39.097252 
	C127.754700,38.070309 122.025307,37.732765 116.517921,38.187893 
	C112.153458,38.548573 107.371078,39.716969 103.740219,42.037861 
	C90.574669,50.453465 85.030174,62.982365 86.000046,79.456444 
M480.150055,37.942722 
	C481.058044,37.617393 481.982056,37.330456 482.871429,36.960396 
	C488.048615,34.806171 490.652313,28.563995 488.642731,23.165958 
	C486.706940,17.966064 480.956512,15.231087 475.663818,16.992970 
	C469.945984,18.896376 467.441498,22.470428 468.004669,27.923019 
	C468.597015,33.658119 472.674286,37.277493 480.150055,37.942722 
z"/>
<path fill="#FF8200" opacity="1.000000" stroke="none" 
	d="
M290.771484,38.897011 
	C299.906586,42.351681 305.447449,48.570633 307.294952,57.737213 
	C310.609802,74.184334 311.046173,90.469223 300.890991,104.941605 
	C295.228912,113.010742 287.289337,118.064064 276.874786,118.006516 
	C270.447723,117.971001 264.020325,117.999939 257.242249,117.999939 
	C256.855194,126.190292 256.083160,135.241165 256.139984,144.286819 
	C256.170013,149.068939 254.608994,150.681900 250.105026,150.020950 
	C249.126434,149.877335 248.093445,149.886810 247.111832,150.019928 
	C243.218735,150.547943 241.935043,149.051620 241.913071,145.015869 
	C241.734863,112.261734 241.332474,79.508812 241.002792,46.755486 
	C240.982727,44.762238 241.000168,42.768612 241.000168,40.818691 
	C250.302689,38.312408 252.684433,39.392361 256.631897,48.353912 
	C265.965363,38.146458 277.561707,36.165779 290.771484,38.897011 
M262.885590,104.942131 
	C263.985260,105.176414 265.076538,105.464684 266.185913,105.636261 
	C273.657776,106.791847 281.048279,106.105301 286.125671,100.154831 
	C295.955170,88.635094 296.812042,67.644867 288.632111,56.085331 
	C284.616180,50.410168 273.290222,48.773117 268.104736,53.424805 
	C265.010345,56.200653 262.031464,59.146149 259.323730,62.293316 
	C258.134705,63.675270 257.132019,65.739960 257.102448,67.512329 
	C256.907867,79.161049 257.002075,90.814590 257.002075,102.309563 
	C258.886963,103.155815 260.493408,103.877060 262.885590,104.942131 
z"/>
<path fill="#FF8200" opacity="1.000000" stroke="none" 
	d="
M25.365021,17.142056 
	C30.438353,15.597805 35.218636,13.280622 40.027428,13.219860 
	C49.011459,13.106339 58.014294,14.273478 67.004738,14.967015 
	C71.230362,15.292988 72.401070,17.855829 72.052063,21.776960 
	C71.789101,24.731447 72.000053,27.728115 72.000053,31.213051 
	C66.442062,29.605490 61.435612,27.618496 56.245266,26.805483 
	C50.890385,25.966696 45.120914,25.185204 39.951870,26.307932 
	C30.262506,28.412483 25.649237,41.338573 33.904942,48.162910 
	C42.159401,54.986221 51.444736,60.546169 59.965008,67.069000 
	C67.627441,72.935097 73.994987,79.644661 74.098289,90.471390 
	C74.230049,104.281143 61.815773,116.872383 48.968712,117.739082 
	C39.391365,118.385185 29.625072,116.994370 20.001770,115.962090 
	C11.790432,115.081261 12.763917,111.955605 13.207895,104.675209 
	C13.293761,103.267166 14.002233,101.897095 14.663279,99.719719 
	C20.044430,101.305679 25.438549,103.587914 31.043144,104.379013 
	C38.742863,105.465843 46.648121,106.684502 53.361908,100.282433 
	C60.544529,93.433296 57.166847,84.271019 51.377666,80.156525 
	C43.038895,74.229988 34.364861,68.777725 25.941339,62.967316 
	C11.826406,53.231052 10.041478,37.535706 17.228895,25.696875 
	C19.162834,22.511362 22.429790,20.135134 25.365021,17.142056 
z"/>
<path fill="#FF8200" opacity="1.000000" stroke="none" 
	d="
M158.990723,53.055386 
	C163.337982,45.045700 170.807266,41.240555 178.344482,38.424702 
	C194.483215,32.395367 215.842667,41.715260 222.132996,57.796585 
	C228.356308,73.706642 228.306717,89.657806 218.162552,104.462891 
	C212.088181,113.328209 203.623734,117.876480 192.946655,117.935715 
	C187.209549,117.967545 181.217224,118.281136 175.780334,116.824394 
	C163.181732,113.448746 153.063477,98.740578 153.060089,85.600029 
	C153.058212,78.361511 153.191513,71.055923 154.197632,63.912083 
	C154.711166,60.265713 157.284103,56.909378 158.990723,53.055386 
M178.655899,103.111977 
	C187.195023,108.691345 201.880798,107.056038 206.932281,94.468605 
	C209.312912,88.536491 210.013565,82.583595 210.103195,76.278664 
	C210.233444,67.117867 207.392441,59.408901 200.181610,53.801132 
	C192.504120,47.830414 179.578873,48.952221 174.230331,56.554100 
	C165.792297,68.547127 163.963287,92.215462 178.655899,103.111977 
z"/>
<path fill="#FF8200" opacity="1.000000" stroke="none" 
	d="
M374.000000,43.181602 
	C373.637878,40.081459 374.376434,38.564472 377.420990,38.980446 
	C380.800323,39.442154 384.201447,39.744370 387.778351,40.136337 
	C387.778351,65.676407 387.778351,90.957817 387.778351,116.248207 
	C376.826447,118.547241 376.029602,116.200821 374.620239,109.114212 
	C370.803467,111.520363 367.312042,114.705421 363.216980,116.044556 
	C358.498138,117.587662 353.244049,117.992897 348.226410,117.971016 
	C343.943756,117.952332 339.307953,117.433281 335.461823,115.716438 
	C327.433746,112.132843 325.341278,104.272758 325.151215,96.520630 
	C324.694458,77.895287 325.003387,59.251160 325.003387,40.308113 
	C329.692169,40.308113 334.082336,40.308113 339.410034,40.308113 
	C339.607269,56.591946 339.827332,72.799957 339.988251,89.008553 
	C340.052094,95.440765 339.643829,102.174240 347.204865,105.034485 
	C354.460602,107.779243 362.894775,104.837334 368.222687,98.282776 
	C372.297119,93.270287 374.085175,87.591270 374.030884,81.152870 
	C373.925476,68.656464 373.999908,56.158554 374.000000,43.181602 
z"/>
<path fill="#FF8200" opacity="1.000000" stroke="none" 
	d="
M442.656189,74.256760 
	C448.985504,78.118874 455.134491,81.714561 457.844116,88.728699 
	C462.011902,99.517357 455.459290,113.503799 443.864777,116.796577 
	C434.442108,119.472565 424.455261,119.335411 414.975922,116.799156 
	C406.547058,114.543961 406.580566,113.644653 406.959778,104.826485 
	C407.125854,100.965347 408.825134,100.351227 412.107697,101.549438 
	C416.511078,103.156746 420.883148,105.222862 425.446503,105.908630 
	C429.581177,106.529976 434.246643,106.383873 438.117279,105.003593 
	C440.602051,104.117531 442.878387,100.645851 443.785156,97.857414 
	C444.847443,94.590813 443.027802,91.688004 439.647125,89.850327 
	C433.081512,86.281357 426.773712,82.236679 420.196259,78.691208 
	C408.970856,72.640312 404.053192,62.236263 408.084534,51.359959 
	C410.954132,43.617996 417.598816,38.990082 425.146484,38.374954 
	C433.846100,37.665951 442.802002,39.158710 451.548279,40.392254 
	C455.487518,40.947830 458.057434,50.793537 455.406036,53.860462 
	C454.902985,54.442375 453.160278,54.287647 452.113495,54.008354 
	C446.655548,52.552132 441.300385,50.082306 435.784729,49.681614 
	C431.806030,49.392574 427.062500,50.942028 423.696747,53.209923 
	C419.901245,55.767357 420.051697,60.403408 423.906433,63.158127 
	C429.691803,67.292564 436.161682,70.469086 442.656189,74.256760 
z"/>
<path fill="#FF8200" opacity="1.000000" stroke="none" 
	d="
M86.000053,78.970528 
	C85.030174,62.982365 90.574669,50.453465 103.740219,42.037861 
	C107.371078,39.716969 112.153458,38.548573 116.517921,38.187893 
	C122.025307,37.732765 127.754700,38.070309 133.193588,39.097252 
	C142.782211,40.907726 146.392365,46.292961 145.797684,56.446888 
	C143.323196,56.955715 140.826233,57.587437 138.291061,57.957523 
	C135.706833,58.334774 133.592972,57.950974 132.328934,54.977287 
	C131.662048,53.408405 129.886353,51.897671 128.254929,51.225143 
	C121.966026,48.632648 110.734291,50.277172 105.914024,58.225483 
	C100.757866,66.727661 100.134094,90.368431 108.138123,98.743599 
	C116.017532,106.988380 124.488441,107.884827 136.323608,102.917229 
	C138.961929,101.809837 141.557098,100.599632 144.323303,99.369537 
	C144.956085,102.697250 146.138062,105.356270 145.717789,107.731827 
	C145.320007,109.980186 143.693893,113.009712 141.811813,113.800339 
	C137.113647,115.773933 132.026642,117.346313 126.977417,117.820564 
	C121.292473,118.354538 115.264816,118.401642 109.762161,117.086983 
	C96.386742,113.891426 90.252945,103.563660 87.102318,91.182213 
	C86.145874,87.423508 86.335403,83.373192 86.000053,78.970528 
z"/>
<path fill="#FF8200" opacity="1.000000" stroke="none" 
	d="
M479.748291,37.966892 
	C472.674286,37.277493 468.597015,33.658119 468.004669,27.923019 
	C467.441498,22.470428 469.945984,18.896376 475.663818,16.992970 
	C480.956512,15.231087 486.706940,17.966064 488.642731,23.165958 
	C490.652313,28.563995 488.048615,34.806171 482.871429,36.960396 
	C481.982056,37.330456 481.058044,37.617393 479.748291,37.966892 
z"/>
<path fill="#000000" opacity="1.000000" stroke="none" 
	d="
M262.492737,104.770218 
	C260.493408,103.877060 258.886963,103.155815 257.002075,102.309563 
	C257.002075,90.814590 256.907867,79.161049 257.102448,67.512329 
	C257.132019,65.739960 258.134705,63.675270 259.323730,62.293316 
	C262.031464,59.146149 265.010345,56.200653 268.104736,53.424805 
	C273.290222,48.773117 284.616180,50.410168 288.632111,56.085331 
	C296.812042,67.644867 295.955170,88.635094 286.125671,100.154831 
	C281.048279,106.105301 273.657776,106.791847 266.185913,105.636261 
	C265.076538,105.464684 263.985260,105.176414 262.492737,104.770218 
z"/>
<path fill="#000000" opacity="1.000000" stroke="none" 
	d="
M178.373413,102.866150 
	C163.963287,92.215462 165.792297,68.547127 174.230331,56.554100 
	C179.578873,48.952221 192.504120,47.830414 200.181610,53.801132 
	C207.392441,59.408901 210.233444,67.117867 210.103195,76.278664 
	C210.013565,82.583595 209.312912,88.536491 206.932281,94.468605 
	C201.880798,107.056038 187.195023,108.691345 178.373413,102.866150 
z"/>
</svg>