<svg version="1.1" id="Layer_1" xmlns="http://www.w3.org/2000/svg" xmlns:xlink="http://www.w3.org/1999/xlink" x="0px" y="0px"
	 width="100%" viewBox="0 0 1420 1563" enable-background="new 0 0 1420 1563" xml:space="preserve">
<path fill="#000000" opacity="1.000000" stroke="none" 
	d="
M1421.000000,467.000000 
	C1421.000000,677.029358 1421.000000,887.058777 1420.646973,1097.674805 
	C1419.493652,1097.050537 1418.515747,1095.920776 1417.919922,1094.616333 
	C1411.550537,1080.671997 1405.746216,1066.443726 1398.808838,1052.790161 
	C1385.196411,1025.999512 1371.241699,999.373108 1356.916626,972.956421 
	C1338.206909,938.454224 1317.411499,905.161255 1294.550659,873.294800 
	C1273.438599,843.866272 1250.857666,815.494202 1229.179077,786.466125 
	C1226.121582,782.372192 1224.342651,782.541748 1221.385498,786.058105 
	C1216.597168,791.751831 1211.636475,797.302551 1206.682251,802.854614 
	C1192.691895,818.533325 1179.094116,834.591614 1164.542969,849.732788 
	C1148.523804,866.401550 1131.753296,882.359802 1115.046997,898.352661 
	C1104.043091,908.886597 1092.771362,919.161926 1081.267944,929.147888 
	C1063.813599,944.299622 1046.535645,959.719482 1028.301270,973.891113 
	C1005.563171,991.563049 982.189941,1008.454468 958.598755,1024.980225 
	C940.535095,1037.634033 922.066589,1049.798706 903.134338,1061.102783 
	C876.110168,1077.238281 848.679810,1092.721436 821.064941,1107.828857 
	C805.570618,1116.305298 789.466858,1123.703857 773.435303,1131.152710 
	C755.201111,1139.625000 737.016296,1148.312988 718.315491,1155.646118 
	C689.681580,1166.874146 660.792358,1177.513550 631.692993,1187.472168 
	C608.996155,1195.239868 585.998840,1202.291382 562.801270,1208.391846 
	C535.157837,1215.661255 507.183472,1221.687622 479.300201,1228.022461 
	C467.937683,1230.604004 456.437866,1232.581177 444.943481,1234.469971 
	C444.006714,1230.480347 441.091248,1230.526733 438.712646,1231.502197 
	C437.438477,1232.024536 436.380219,1234.405273 436.224426,1236.042480 
	C435.911652,1239.329346 438.393341,1239.991333 441.404175,1240.181396 
	C445.960480,1251.271729 450.151947,1262.169556 454.509155,1273.000610 
	C470.522369,1312.806030 488.226837,1351.839355 508.863251,1389.474121 
	C521.217712,1412.005249 533.908630,1434.360718 546.881165,1456.541992 
	C566.427429,1489.963257 588.148438,1521.957275 611.329346,1552.968506 
	C613.889771,1556.393921 615.792358,1560.310913 618.000000,1564.000000 
	C412.363647,1564.000000 206.727295,1564.000000 1.045474,1564.000000 
	C1.045474,1043.107056 1.045474,522.214233 1.045474,1.000000 
	C206.029266,1.000000 411.058685,1.000000 616.842590,1.271330 
	C604.657532,19.881220 591.118530,37.831264 578.922729,56.651733 
	C561.741272,83.165932 545.087219,110.050430 529.094360,137.297058 
	C516.724731,158.370789 505.299896,180.032059 494.234955,201.828064 
	C485.485107,219.063660 477.565338,236.748093 469.919800,254.509903 
	C460.479340,276.441681 451.569000,298.605804 442.709808,320.781464 
	C439.252319,329.435944 439.651550,329.303925 448.548370,331.018951 
	C472.629913,335.660919 496.824249,339.875061 520.670776,345.535736 
	C545.767029,351.493042 570.768066,358.122101 595.348938,365.914490 
	C629.451721,376.725433 663.419739,388.107697 696.903320,400.688263 
	C736.142639,415.431458 774.343811,432.740845 811.514526,452.204163 
	C826.464478,460.032257 841.561035,467.632935 856.121399,476.140717 
	C880.437378,490.348846 904.721008,504.668304 928.376404,519.935364 
	C952.029419,535.200928 975.484070,550.905090 997.953247,567.839905 
	C1024.442383,587.804504 1050.143677,608.866394 1075.491821,630.275085 
	C1093.177856,645.212585 1110.146851,661.076294 1126.622925,677.349609 
	C1147.898560,698.363342 1168.453247,720.112122 1189.121094,741.732910 
	C1195.256592,748.151306 1200.681641,755.244812 1206.517212,761.955017 
	C1211.826294,768.059692 1217.243042,774.070984 1222.628174,780.109314 
	C1224.726685,782.462341 1226.054810,782.656494 1228.309814,779.613708 
	C1234.957397,770.643677 1242.390381,762.257874 1249.098633,753.329895 
	C1264.258423,733.154053 1279.554688,713.062073 1294.061279,692.420044 
	C1306.578247,674.609070 1318.657471,656.432800 1329.889893,637.791138 
	C1345.108765,612.533813 1360.134399,587.095581 1373.774170,560.968201 
	C1389.103271,531.604614 1402.775391,501.376801 1417.257690,471.568329 
	C1418.094482,469.846069 1419.734009,468.513794 1421.000000,467.000000 
z"/>
<path fill="#5E33BF" opacity="1.000000" stroke="none" 
	d="
M1421.000000,466.583344 
	C1419.734009,468.513794 1418.094482,469.846069 1417.257690,471.568329 
	C1402.775391,501.376801 1389.103271,531.604614 1373.774170,560.968201 
	C1360.134399,587.095581 1345.108765,612.533813 1329.889893,637.791138 
	C1318.657471,656.432800 1306.578247,674.609070 1294.061279,692.420044 
	C1279.554688,713.062073 1264.258423,733.154053 1249.098633,753.329895 
	C1242.390381,762.257874 1234.957397,770.643677 1228.309814,779.613708 
	C1226.054810,782.656494 1224.726685,782.462341 1222.628174,780.109314 
	C1217.243042,774.070984 1211.826294,768.059692 1206.517212,761.955017 
	C1200.681641,755.244812 1195.256592,748.151306 1189.121094,741.732910 
	C1168.453247,720.112122 1147.898560,698.363342 1126.622925,677.349609 
	C1110.146851,661.076294 1093.177856,645.212585 1075.491821,630.275085 
	C1050.143677,608.866394 1024.442383,587.804504 997.953247,567.839905 
	C975.484070,550.905090 952.029419,535.200928 928.376404,519.935364 
	C904.721008,504.668304 880.437378,490.348846 856.121399,476.140717 
	C841.561035,467.632935 826.464478,460.032257 811.514526,452.204163 
	C774.343811,432.740845 736.142639,415.431458 696.903320,400.688263 
	C663.419739,388.107697 629.451721,376.725433 595.348938,365.914490 
	C570.768066,358.122101 545.767029,351.493042 520.670776,345.535736 
	C496.824249,339.875061 472.629913,335.660919 448.548370,331.018951 
	C439.651550,329.303925 439.252319,329.435944 442.709808,320.781464 
	C451.569000,298.605804 460.479340,276.441681 469.919800,254.509903 
	C477.565338,236.748093 485.485107,219.063660 494.234955,201.828064 
	C505.299896,180.032059 516.724731,158.370789 529.094360,137.297058 
	C545.087219,110.050430 561.741272,83.165932 578.922729,56.651733 
	C591.118530,37.831264 604.657532,19.881220 617.298523,1.271330 
	C620.030579,1.000000 623.061218,1.000000 626.358154,1.371411 
	C632.175903,3.478422 637.696533,5.320435 643.283752,6.931652 
	C671.052307,14.939383 698.975220,22.442432 726.587097,30.955896 
	C770.980286,44.643501 814.600891,60.561119 857.359985,78.750366 
	C881.455322,89.000298 905.580017,99.219872 929.326538,110.239708 
	C950.291626,119.968811 970.913818,130.477219 991.388489,141.211624 
	C1013.578003,152.845016 1035.916016,164.325287 1057.302002,177.331070 
	C1090.581543,197.569702 1123.515137,218.440659 1155.833740,240.176025 
	C1182.458130,258.081940 1208.305664,277.197876 1233.887695,296.582520 
	C1256.257935,313.533630 1278.088623,331.236969 1299.580688,349.294830 
	C1318.276978,365.003723 1336.345825,381.477295 1354.350098,397.985809 
	C1366.591919,409.210754 1378.292236,421.030060 1390.144165,432.675659 
	C1399.293335,441.665466 1408.279541,450.820831 1417.405396,459.834717 
	C1418.372681,460.790222 1419.790894,461.289185 1421.000000,462.000000 
	C1421.000000,463.388885 1421.000000,464.777802 1421.000000,466.583344 
z"/>
<path fill="#16AB03" opacity="1.000000" stroke="none" 
	d="
M618.444153,1564.000000 
	C615.792358,1560.310913 613.889771,1556.393921 611.329346,1552.968506 
	C588.148438,1521.957275 566.427429,1489.963257 546.881165,1456.541992 
	C533.908630,1434.360718 521.217712,1412.005249 508.863251,1389.474121 
	C488.226837,1351.839355 470.522369,1312.806030 454.509155,1273.000610 
	C450.151947,1262.169556 445.960480,1251.271729 441.342041,1239.821899 
	C438.752838,1234.517456 442.474243,1235.219238 445.000549,1234.833496 
	C456.437866,1232.581177 467.937683,1230.604004 479.300201,1228.022461 
	C507.183472,1221.687622 535.157837,1215.661255 562.801270,1208.391846 
	C585.998840,1202.291382 608.996155,1195.239868 631.692993,1187.472168 
	C660.792358,1177.513550 689.681580,1166.874146 718.315491,1155.646118 
	C737.016296,1148.312988 755.201111,1139.625000 773.435303,1131.152710 
	C789.466858,1123.703857 805.570618,1116.305298 821.064941,1107.828857 
	C848.679810,1092.721436 876.110168,1077.238281 903.134338,1061.102783 
	C922.066589,1049.798706 940.535095,1037.634033 958.598755,1024.980225 
	C982.189941,1008.454468 1005.563171,991.563049 1028.301270,973.891113 
	C1046.535645,959.719482 1063.813599,944.299622 1081.267944,929.147888 
	C1092.771362,919.161926 1104.043091,908.886597 1115.046997,898.352661 
	C1131.753296,882.359802 1148.523804,866.401550 1164.542969,849.732788 
	C1179.094116,834.591614 1192.691895,818.533325 1206.682251,802.854614 
	C1211.636475,797.302551 1216.597168,791.751831 1221.385498,786.058105 
	C1224.342651,782.541748 1226.121582,782.372192 1229.179077,786.466125 
	C1250.857666,815.494202 1273.438599,843.866272 1294.550659,873.294800 
	C1317.411499,905.161255 1338.206909,938.454224 1356.916626,972.956421 
	C1371.241699,999.373108 1385.196411,1025.999512 1398.808838,1052.790161 
	C1405.746216,1066.443726 1411.550537,1080.671997 1417.919922,1094.616333 
	C1418.515747,1095.920776 1419.493652,1097.050537 1420.646973,1098.130737 
	C1421.000000,1099.388916 1421.000000,1100.777832 1420.650024,1102.604370 
	C1419.368530,1103.692993 1418.323608,1104.228027 1417.522461,1105.012207 
	C1399.685547,1122.470947 1381.953491,1140.037598 1364.026978,1157.403809 
	C1355.219116,1165.936523 1346.218994,1174.286499 1337.027222,1182.403564 
	C1319.192139,1198.153809 1301.368164,1213.929077 1283.149170,1229.228882 
	C1265.982544,1243.644897 1248.855347,1258.207520 1230.748657,1271.383545 
	C1196.682373,1296.172852 1162.452393,1320.812622 1127.290771,1343.998413 
	C1097.339478,1363.748535 1066.283936,1381.890991 1035.156738,1399.769287 
	C1009.981384,1414.229004 984.344666,1428.003784 958.234924,1440.687622 
	C927.747131,1455.498413 896.824585,1469.517700 865.536194,1482.549194 
	C832.737549,1496.209473 799.497925,1508.893677 766.059753,1520.916260 
	C720.997559,1537.117920 674.903748,1550.066162 628.540100,1562.022583 
	C627.586792,1562.268555 626.842041,1563.322876 626.000000,1564.000000 
	C623.629456,1564.000000 621.258850,1564.000000 618.444153,1564.000000 
z"/>
<path fill="#000000" opacity="1.000000" stroke="none" 
	d="
M626.468689,1564.000000 
	C626.842041,1563.322876 627.586792,1562.268555 628.540100,1562.022583 
	C674.903748,1550.066162 720.997559,1537.117920 766.059753,1520.916260 
	C799.497925,1508.893677 832.737549,1496.209473 865.536194,1482.549194 
	C896.824585,1469.517700 927.747131,1455.498413 958.234924,1440.687622 
	C984.344666,1428.003784 1009.981384,1414.229004 1035.156738,1399.769287 
	C1066.283936,1381.890991 1097.339478,1363.748535 1127.290771,1343.998413 
	C1162.452393,1320.812622 1196.682373,1296.172852 1230.748657,1271.383545 
	C1248.855347,1258.207520 1265.982544,1243.644897 1283.149170,1229.228882 
	C1301.368164,1213.929077 1319.192139,1198.153809 1337.027222,1182.403564 
	C1346.218994,1174.286499 1355.219116,1165.936523 1364.026978,1157.403809 
	C1381.953491,1140.037598 1399.685547,1122.470947 1417.522461,1105.012207 
	C1418.323608,1104.228027 1419.368530,1103.692993 1420.650024,1103.020996 
	C1421.000000,1256.613159 1421.000000,1410.226318 1421.000000,1564.000000 
	C1156.312500,1564.000000 891.624878,1564.000000 626.468689,1564.000000 
z"/>
<path fill="#000000" opacity="1.000000" stroke="none" 
	d="
M1421.000000,461.531311 
	C1419.790894,461.289185 1418.372681,460.790222 1417.405396,459.834717 
	C1408.279541,450.820831 1399.293335,441.665466 1390.144165,432.675659 
	C1378.292236,421.030060 1366.591919,409.210754 1354.350098,397.985809 
	C1336.345825,381.477295 1318.276978,365.003723 1299.580688,349.294830 
	C1278.088623,331.236969 1256.257935,313.533630 1233.887695,296.582520 
	C1208.305664,277.197876 1182.458130,258.081940 1155.833740,240.176025 
	C1123.515137,218.440659 1090.581543,197.569702 1057.302002,177.331070 
	C1035.916016,164.325287 1013.578003,152.845016 991.388489,141.211624 
	C970.913818,130.477219 950.291626,119.968811 929.326538,110.239708 
	C905.580017,99.219872 881.455322,89.000298 857.359985,78.750366 
	C814.600891,60.561119 770.980286,44.643501 726.587097,30.955896 
	C698.975220,22.442432 671.052307,14.939383 643.283752,6.931652 
	C637.696533,5.320435 632.175903,3.478422 626.812256,1.371411 
	C891.574463,1.000000 1156.148926,1.000000 1421.000000,1.000000 
	C1421.000000,154.354111 1421.000000,307.708405 1421.000000,461.531311 
z"/>
<path fill="#000000" opacity="1.000000" stroke="none" 
	d="
M444.943481,1234.469971 
	C442.474243,1235.219238 438.752838,1234.517456 441.053284,1239.598755 
	C438.393341,1239.991333 435.911652,1239.329346 436.224426,1236.042480 
	C436.380219,1234.405273 437.438477,1232.024536 438.712646,1231.502197 
	C441.091248,1230.526733 444.006714,1230.480347 444.943481,1234.469971 
z"/>
</svg>