<?xml version="1.0" encoding="utf-8"?>
<!DOCTYPE svg PUBLIC "-//W3C//DTD SVG 1.0//EN" "http://www.w3.org/TR/2001/REC-SVG-20010904/DTD/svg10.dtd">
<svg version="1.0" xmlns="http://www.w3.org/2000/svg" width="4000px" height="4000px" viewBox="0 0 4000 4000" preserveAspectRatio="xMidYMid meet">
 <g fill="#000000">
  <path d="M0 2000 l0 -2000 2000 0 2000 0 0 2000 0 2000 -2000 0 -2000 0 0 -2000z m1582.60 1382.40 c23.60 -11.60 40.60 -34.40 46.40 -61.80 2.40 -11.60 2.40 -15.40 0 -26.80 -4.80 -23.40 -15.20 -38.20 -38.20 -55.20 -7 -5.20 -13.40 -11.40 -14 -13.60 -0.40 -2.20 -0.20 -98.40 0.60 -214 1 -115.40 1.40 -216 1 -223.40 l-0.80 -13.20 -14.80 -6 c-8.20 -3.40 -15 -6 -15.20 -5.80 -0.20 0.20 -1 104.20 -1.60 231.20 l-1 230.80 -19 9.80 c-50.40 25.80 -67 69.40 -42.60 111.40 10.80 18.60 30.60 35.40 49.20 41.40 14 4.60 35 2.60 50 -4.80z m832.40 0.60 c32.20 -15.60 55.60 -56.80 49.40 -86.60 -5.60 -27 -23.20 -47.60 -53 -62.20 -9.60 -4.60 -17.80 -9.20 -18.60 -10.40 -0.60 -1.20 -1.20 -101.20 -1 -222 0.20 -121 0 -220.60 -0.80 -221.60 -0.60 -1 -8 0.60 -16.60 3.80 l-15.40 5.60 0.60 179.60 c0.20 99 1 196.60 1.80 217.20 l1.20 37.40 -7 6.60 c-3.80 3.60 -12 11 -18.40 16.20 -15.60 13.40 -24.20 27 -28.40 44.80 -3 12.80 -3.20 16.40 -1 27.20 8.40 43.20 42.40 72.60 81.60 70.60 10.60 -0.40 17.20 -2 25.60 -6.20z m-536.20 -130 c25.80 -12.80 45.40 -35 53.40 -61 4.80 -15.40 3.80 -24 -4.40 -40.20 -10 -20.20 -31.40 -35.60 -72.60 -52.60 l-7.80 -3.20 1.20 -69.80 1.20 -69.80 -6 -9 c-3.40 -5.20 -14.40 -15.60 -25.40 -24 -10.60 -8.20 -36.80 -31.80 -58 -52.20 -21.20 -20.40 -41.20 -38.60 -44.40 -40.20 -7 -3.60 -64 -27 -65.80 -27 -2.80 0 107 108.40 130 128.20 37 31.80 35 28.20 36.60 68.80 0.60 18.80 0.60 50 -0.40 69.60 -1.40 30.60 -2.20 36.20 -5.60 40.20 -2 2.60 -8.80 10.80 -15 18.20 -13 15 -17.80 28.40 -17.80 48.60 0 27.20 9.40 50 27.40 66.40 22 20 45.20 23 73.40 9z m236.40 2.80 c12.60 -6.20 28.80 -22.20 34.40 -34 6.80 -13.80 11 -36.60 9.60 -51 -2 -19.20 -6.40 -29.20 -19.60 -44.20 -19.40 -21.80 -17.80 -16 -19 -76 -0.60 -29.60 -0.60 -60.80 0.40 -69.60 l1.40 -16 13.40 -13 c7.40 -7.20 26.80 -25.40 43.40 -40.40 16.40 -15.20 43.80 -41.40 60.80 -58.60 l31 -31 -11 3.80 c-6 2 -21.60 8 -34.60 13 l-23.80 9.20 -33.20 31.60 c-18.40 17.40 -40.60 37 -49.40 43.80 -8.80 6.60 -18.40 14.80 -21.40 17.80 -10.80 11.60 -11 14 -9 83.20 1 34.80 1.40 65.40 0.80 68 -1 3.60 -5.80 6.60 -21.40 13.40 -11.20 4.80 -25.80 12.40 -32.40 16.80 -14.20 9.40 -27.80 26.80 -31.60 40.20 -9.40 34 22.60 79.80 66.80 95.60 13.40 4.80 31.40 3.80 44.40 -2.60z m-752.80 -126.20 c33.40 -16.60 51.60 -47.80 45.60 -78.20 -5.20 -26.60 -24.20 -51.60 -49.60 -65 -6.80 -3.60 -13.60 -8.60 -14.80 -11 -3.40 -5.60 -3.20 -53 0.40 -120.60 1.40 -27.40 2.20 -62 1.80 -76.80 -0.80 -25.40 -1.20 -27.60 -6.60 -37.60 -4 -7.20 -16.20 -20.40 -37.80 -40.80 -17.40 -16.60 -37.20 -36.80 -43.80 -44.80 -11 -13.40 -13.40 -15.20 -27.40 -20.60 -8.40 -3.20 -20 -7.80 -25.60 -10 -10.20 -4 -10.60 -4 -10.60 -0.40 0 7 11.60 20.60 57 66.60 30.60 31 48.40 50.60 53 58.60 l7 11.80 0.60 95.20 c0.20 52.20 -0.20 101.60 -1 109.80 l-1.60 15 -16.60 11.80 c-26.60 18.80 -37 37.40 -37.20 66.40 -0.20 28.80 10.40 51.20 30.80 65.60 15.20 10.40 25.60 13.40 45.40 12.80 14 -0.60 18.40 -1.60 31 -7.80z m1277.80 1.80 c22.80 -11.20 34.80 -26.60 41 -52.60 5.20 -22.80 0.20 -47.80 -13.40 -66.40 -3.40 -4.60 -13.60 -13.80 -22.60 -20.40 l-16.60 -11.80 -1.20 -13.60 c-0.80 -7.60 -1.60 -55.60 -1.80 -106.80 l-0.40 -93.20 6.80 -13.80 c5.60 -11.40 12.80 -20 43.40 -51 l36.80 -37.20 -30.60 10.80 c-24.20 8.40 -32.20 12.40 -38.60 18.20 -27.40 25.20 -40 38.60 -44.60 47.40 -4.80 9 -5.40 12.60 -6 36 -0.60 14.40 0.20 50.80 1.80 81 3.40 72.40 3.60 111.80 0.20 117.40 -1.20 2.40 -7.80 7.20 -14.40 10.80 -24.80 13.20 -42.40 34.40 -49 58.60 -10.20 37.80 14.20 76 58 90.60 13.20 4.20 38.40 2.40 51.20 -4z m-1781.20 -66.40 c15.60 -7.40 31.20 -24 40.40 -42.60 7 -14.20 7.60 -16.40 7.60 -33.20 0 -16 -0.80 -19.60 -5.80 -30 -8.40 -17 -23.20 -30.60 -45.40 -42.20 -10.40 -5.20 -19.40 -10.40 -20 -11.60 -0.80 -1 -1.20 -98.40 -1 -216.40 l0.40 -214.60 -13.20 -5.20 c-7.20 -2.80 -14.60 -5.60 -16.80 -6.40 -3.60 -1.40 -3.60 4.20 -2 205.40 1 113.80 1.80 214.40 1.80 223.60 l0 16.80 -8 6.20 c-15.20 12 -31.40 28.20 -36.40 36.60 -18 31 -11.80 69.40 15.80 97.20 24.20 24.40 53.40 30.20 82.60 16.40z m2252.60 0 c14.40 -6.60 31.20 -23.80 38.60 -40 17.40 -36.80 9.80 -69.60 -22.40 -97.20 -7 -6 -15 -13.20 -18.20 -16 l-5.40 -5.40 0.80 -54.60 c1.40 -78.80 3 -327.80 2.20 -327.80 -0.40 0 -3.80 1.20 -7.40 2.60 -3.80 1.60 -11 4.20 -16 6.20 l-9.20 3.40 0.20 182.40 c0.20 100.40 0 183.80 -0.40 185.40 -0.20 1.60 -9 7.40 -19.40 12.60 -23 11.80 -36.20 23.40 -44.60 39 -9.60 18 -11.40 29.60 -7.60 47.20 9.80 43.40 50.40 75.20 88.20 68.60 5.60 -0.80 14.80 -3.80 20.60 -6.40z m-2554.60 -126.80 c17.80 -8.60 27.80 -18.20 36 -34.80 9 -18.60 12.20 -38.60 9 -56.80 -3 -17.20 -7.20 -25.40 -22.80 -42.80 l-12.80 -14.40 -1.40 -28.20 c-0.80 -15.60 -1.20 -47.40 -0.80 -71 l0.80 -42.80 19.80 -18.20 c11 -10 48.60 -46.60 83.80 -81.20 63 -62.20 97.20 -99.20 94 -102 -0.80 -0.80 -7.20 -3.60 -13.80 -6.60 l-12.40 -5 -38.40 40.60 c-46.60 49.20 -109 109.80 -129.80 125.60 -8.40 6.40 -18.60 15 -22.80 19 -14.40 13.80 -14 11.40 -13.60 89.40 l0.40 70 -18.60 7.80 c-22.40 9.20 -43.20 22.60 -51.60 33.20 -11 13.80 -16.60 28.80 -15.60 41.80 2.20 30.40 32.60 66.20 66.20 78.20 16 5.60 30 5.20 44.40 -1.80z m2840.20 1.80 c33 -11.40 64 -47.20 66.40 -77.40 2.40 -29.40 -21.80 -57.20 -66 -75.60 l-19 -7.80 -1.20 -15.20 c-0.40 -8.20 -0.20 -38.80 0.60 -68 1.80 -68 2.80 -65.60 -36.80 -95.80 -8.60 -6.60 -39.60 -35.20 -69 -63.80 l-53.40 -52 -15.60 5 c-8.40 2.60 -15.20 5.60 -14.80 6.40 0.80 2.20 112.80 111.20 136.80 133.40 l19.80 18.20 0 69 c0 77.60 1.40 70.40 -17 90.60 -12.40 13.60 -17 22.80 -20 39 -5.80 31.80 7.60 67.80 31.20 84.60 19.20 13.80 36.80 16.60 58 9.40z m-1086.80 -198.80 c179.60 -63.20 442.20 -155.60 583.60 -205.20 141.40 -49.80 270 -95 286 -100.60 16 -5.40 29.80 -10.60 30.60 -11.40 1 -0.80 -1.40 -3.20 -5 -5.40 -3.60 -2.20 -16.60 -10.40 -29 -18.20 -98.20 -62.20 -183.80 -99.20 -293.60 -127 -38.80 -10 -101.80 -22.40 -123 -24.40 -23.60 -2.20 -79.40 10 -128.20 28 -51 19 -91 38.40 -202.40 97.80 -108.20 57.60 -146.80 76.60 -201 98.40 -26 10.40 -27.20 10.80 -46 10.80 -57.40 -0.20 -114.80 -17.40 -210.60 -63 -78.20 -37.40 -100.80 -46.20 -125 -48.40 -19.60 -1.80 -41.80 6.40 -57.80 21.60 -11.40 10.80 -79 36.60 -121.80 46.80 -39.20 9.20 -62.60 11.60 -107.20 10.40 -36 -0.80 -43.40 -1.40 -61 -6 -11 -3 -28.40 -9.60 -38.80 -14.60 -25.80 -12.60 -47.80 -34.40 -59.80 -58.40 -10.80 -21.60 -11.60 -27.20 -7.60 -46.20 1.80 -8.60 4.60 -31.80 6.20 -51.40 1.40 -19.60 4.20 -42.80 6 -51.40 7.80 -37.80 34.20 -101.80 53.80 -131 32 -47.80 41.80 -83 32.40 -115.40 -2 -6.60 -8.80 -25 -15.40 -41 -12 -30 -17.80 -48.80 -17.80 -58.40 0 -3 -1 -5.60 -2 -5.60 -2 0 -396.60 98.20 -397.60 99 -0.20 0.20 0.80 11.60 2.40 25.40 11.40 97.20 2.60 179 -25 234.40 -19.40 39 -44.60 65.20 -105.40 110.40 -39.40 29.40 -70.60 57.80 -81.40 74.40 -3 4.60 -5.20 8.80 -4.80 9.20 0.60 0.80 136.80 56 310.80 126.20 132.60 53.60 98.20 40.20 436 169.20 156.20 59.60 290.80 111 299 114.20 8.20 3.20 19.60 7.60 25 9.60 5.60 2 14.60 5.60 20 7.60 7.40 3 15.20 4 29.40 4.20 l19.40 0.20 326.60 -114.80z m-1243.60 77.80 c17 -3.60 28.20 -10 39.60 -22.80 13.40 -14.80 18.60 -30.40 18.40 -54.20 -0.20 -32.20 -9.40 -48.40 -39 -69.40 l-15.80 -11 0 -16.40 c0 -9.20 -0.60 -30 -1.40 -46.60 l-1.20 -30 -14.60 -6.20 -14.80 -6.20 1.40 45.40 c1.60 56.40 1.40 56.80 -16.60 66.40 -25.80 13.60 -44.40 37 -49.60 62.60 -8.20 39.40 21 78.80 65.60 88.40 6.80 1.40 12.60 2.80 13.20 2.80 0.60 0 7.20 -1.20 14.80 -2.80z m1815.20 -3.40 c22.40 -7.60 41 -24 50.40 -44.80 3.60 -7.80 4.60 -13.40 4.60 -27 0 -15.60 -0.60 -18.20 -7.40 -32.20 -9 -18 -27.20 -36.40 -44.60 -44.40 -7.40 -3.60 -11.80 -7.20 -13 -10.40 -1.20 -2.80 -2 -14.40 -2 -26 0 -15.40 -0.60 -20.80 -2.40 -20.60 -1.40 0 -8 2 -14.60 4.60 l-12 4.60 -1.20 21.60 c-0.80 15 -2 22 -4 23.20 -11.80 7 -32 23.60 -37.40 30.60 -15 19.80 -19 48.60 -10.40 75.20 3.60 11.40 7 17 15.40 26.20 21.80 23.60 47.80 30 78.60 19.40z m-682 -371.40 c47 -18.20 117.80 -52.80 217 -106 147.60 -79.40 214.80 -107 291.60 -120.20 41 -7 67.20 -5 140.40 10 82.40 17 158.40 41.40 228.40 73.60 42.80 19.80 101.80 53.60 171.60 98.80 9.80 6.40 19 11.60 20.20 11.60 2.40 0 85 -31.20 126.80 -48 30.80 -12.20 187.80 -81.80 196 -86.80 3.80 -2.20 12 -6.60 18 -9.60 6 -3 13 -7 15.40 -9 5 -4.20 27.40 -39.60 32.80 -51.60 8.60 -19.60 8.40 -43.80 -0.40 -61.20 -4 -7.80 -5.20 -8.40 -34.80 -13.80 -22.80 -4.20 -37.20 -10.20 -47 -19 l-9 -8.40 -161 -39.20 c-160.60 -39.20 -210.20 -50.80 -894 -210.40 -356.40 -83 -363.40 -84.60 -390.40 -86 l-27.60 -1.40 0 -92.40 c0.20 -104.80 3 -271 4.80 -272.60 0.60 -0.60 21.40 -4.60 46.20 -8.80 135.80 -23.20 206.60 -43.40 286.80 -82 43 -20.80 62.20 -31.80 103.20 -59 54 -35.80 90 -66 142.20 -119.20 106.40 -108.20 180.40 -243 211.60 -385.60 16.40 -75.40 22 -138.20 26.20 -302.20 l1.40 -47.20 -13.80 -4.20 c-20.20 -6.40 -38.40 -8.60 -69.60 -8.60 -32.80 0 -116.60 6.60 -154.60 12.20 -197.60 29.20 -371.60 122.60 -504 270.80 -58.80 65.80 -108.20 135.80 -127 180.20 -9.20 21.80 -17 36.80 -22.80 44.60 -4.20 5.40 -6 6.40 -13.40 6.40 l-8.60 0 -5.60 -14.40 c-21.80 -56.60 -59.80 -121.40 -102.20 -174.60 -23.60 -29.40 -88 -93.80 -117.80 -117.40 -118.40 -93.80 -259.60 -157.80 -411.20 -186.40 -63.80 -12.20 -114.40 -16 -181.80 -14.40 -68 1.80 -66.80 1.60 -71.40 11.80 -3.20 7.60 -3.60 14.20 -3 73.40 1 108.20 4 156 13.60 214 43 259.80 223.20 498.40 468.80 620.80 64.20 32 125.60 53 199 68 33.40 7 45.60 8.60 80 11.20 32 2.40 56.40 6.60 65.40 11.20 l5.60 3 0 105.60 c0 58 -0.60 139.40 -1.40 180.80 l-1.20 75.20 -15.20 1.20 c-8.40 0.80 -59.20 9.40 -113.20 19.20 -77.80 14 -120.80 23.20 -208.80 44.20 l-110.60 26.60 1 9.40 c0.60 5 5 19 9.60 31 4.60 11.80 11.40 29.80 15.40 39.60 14.60 38 16.20 78 4.40 113.20 -7.20 22 -19.20 45 -33.20 64.80 -10.20 14.20 -25.20 45.80 -36.60 77.40 -10.20 27.60 -16.20 54.60 -18.20 81.60 -1.20 13.80 -3 34.60 -4.20 46.20 l-2.20 21.40 5.60 10.60 c7.20 13.40 26.40 32.60 41.20 41.40 15 8.80 34.60 15.60 57.80 19.60 22.40 3.80 64.80 3 92 -2 49.80 -9.20 120.40 -34.40 142.20 -51 25 -19 41 -24.20 74.60 -24.20 38 0 59 6.80 136 43.40 77.40 37 105 48 147 58.60 20.80 5.40 42.20 9 56 9.80 2.80 0 11.80 -2.40 20 -5.60z m-1368 -69.20 c13.80 -16.80 35.60 -35.20 80.20 -68.60 53.60 -39.80 78 -66.60 95 -103.80 21.60 -47.40 28.40 -113.60 19.80 -191.60 -4.40 -40.20 -3.80 -38.80 -11.60 -37 -3.60 0.80 -19.40 4.80 -35.40 8.60 -484.60 116.60 -613.40 148.20 -625.60 153.20 -27.80 11.60 -54.40 34 -54.40 46.20 0 13.60 33.60 38.60 72 53.40 10.40 4 104.60 41.80 209 83.80 104.60 42 198 79.60 207.80 83.40 l18 6.80 7 -10.60 c4 -5.80 12.20 -16.60 18.20 -23.80z"/>
  <path d="M1541 3356.60 c-16.40 -3.60 -28.40 -11.60 -34.20 -22.80 -4.20 -8.40 -3.80 -36.60 1 -46.80 7.20 -16.20 22.60 -25 43.20 -25 19.40 0 34.80 8.20 42.20 22.40 8.80 17 4.40 48.60 -8.80 61.80 -9.60 9.40 -28 13.80 -43.40 10.40z"/>
  <path d="M2372 3356.20 c-20 -4.20 -32 -22 -32 -47.60 0 -16.40 3.40 -25.60 13.20 -34.40 9.40 -8.80 18.80 -12.20 33.80 -12.20 15.40 0 24.60 3.40 33.80 12.80 10.60 10.40 14 21.60 12.80 42 -0.60 13 -1.40 15.80 -6.80 22.60 -3.20 4.20 -10 9.60 -15 12 -9.60 5 -28.60 7.20 -39.80 4.80z"/>
  <path d="M1841.60 3221.20 c-13.60 -3.80 -24.80 -12.20 -29.80 -22.60 -3.60 -7.40 -4.20 -11.40 -3.40 -24.40 1 -18 5.60 -27.40 16.80 -34.20 6 -3.80 9.20 -4.20 26.60 -3.60 18.60 0.60 20.40 1 28.60 6.80 4.60 3.60 10.60 10.40 13.20 15 4 7.40 4.60 11 4 23.80 -0.80 18.20 -5.40 28.60 -15.40 35 -9.20 6 -27.60 8 -40.60 4.20z"/>
  <path d="M2067.40 3222.20 c-8.60 -1.80 -16.20 -7 -22.20 -15 -3.40 -4.40 -4.40 -9 -4.80 -25 -0.80 -19.40 -0.80 -19.40 6 -28.20 10.20 -13.40 20.80 -18 41 -18 21.40 0 30.80 4.80 38.40 19.40 3.60 7 4.80 26.80 2.40 36.20 -6 22.20 -33.80 36.20 -60.80 30.60z"/>
  <path d="M1319.40 3103.20 c-11.40 -3.20 -17.80 -7.60 -26.20 -18 -5.80 -7 -6.20 -9 -6.80 -25.40 -0.60 -15 -0.20 -19 3.60 -26.80 6.60 -13.80 17 -19 37.40 -19 21.20 0 34.60 6.40 43.60 21 5.40 8.80 6 11.20 6 25.80 -0.20 20.80 -6.20 33.60 -19.20 40.20 -8 4.20 -27.40 5.40 -38.40 2.20z"/>
  <path d="M2593 3104.80 c-2.20 -0.60 -6 -1.40 -8.40 -2 -8.60 -1.80 -17.80 -12.20 -21.60 -24 -7.80 -24.80 0.60 -48.60 20.80 -59.20 9 -4.80 13 -5.60 26.60 -5.60 18.80 0 27.80 4 35.40 15.60 7.20 10.80 8.60 38 2.60 49.80 -4.80 9 -14.20 17.80 -23.80 21.80 -7 3 -25.40 5 -31.60 3.60z"/>
  <path d="M811.60 3037.20 c-12.40 -4.40 -17 -8.40 -22.60 -20 -4.80 -10 -5.40 -12.80 -4.80 -28.80 0.80 -15.40 1.60 -18.80 6.40 -26 14.20 -21.40 54.80 -25 73.60 -6.20 13.20 13.20 18 41.40 10 59.20 -8.80 19.20 -39.80 30 -62.60 21.80z"/>
  <path d="M3060.40 3036.40 c-21 -7.60 -29.60 -22 -28 -47.20 1.60 -24 12.20 -38.20 32.40 -43.40 23.20 -5.80 47.40 2.80 56.80 20.20 4.20 8 4.60 11 4 27 -1 22 -6 32.80 -19 40.40 -11.60 6.80 -31.80 8 -46.20 3z"/>
  <path d="M511 2904.20 c-15 -3.80 -23.80 -13.40 -27 -29.40 -4.60 -22 1 -38 17.60 -49.80 7.80 -5.40 10.60 -6 26.20 -6.60 21 -1 29.20 1.80 37.40 12.80 5.40 6.80 5.80 9.20 6.40 26.80 0.80 19.20 0.80 19.20 -6 28 -3.60 4.80 -10.60 10.80 -15.60 13.40 -9.80 5 -29.20 7.40 -39 4.80z"/>
  <path d="M3369.60 2903.20 c-11.20 -3 -21.80 -10.60 -27.60 -20.20 -3.80 -6.20 -4.40 -9.40 -3.60 -26 0.40 -15 1.40 -19.80 4.80 -24.20 8.60 -11.60 13.60 -13.80 33.40 -14.40 16.20 -0.60 19.40 -0.20 27.20 4 18.80 10 27 29.60 22.20 52.40 -5.20 25.40 -27 36.40 -56.40 28.40z"/>
  <path d="M1020 2781.60 c-11 -7.40 -16 -19.40 -16 -38 0 -22.80 8.40 -37 26.40 -44.40 9.40 -4 35.40 -4.20 44.40 -0.40 19.80 8.20 27.40 43.80 14 66.80 -3.20 5.60 -8.60 10.40 -15.40 14.40 -9.40 5.40 -12 6 -28.60 6 -15.60 0 -19.20 -0.60 -24.80 -4.40z"/>
  <path d="M2847.40 2785.20 c-20.20 -5.60 -33.40 -22.80 -33.40 -44 0 -16 3 -25.80 10 -34 8.60 -9.80 15.20 -11.80 35.40 -11 16 0.80 18.40 1.40 27 7.20 13 9.20 18 18 19.20 34.20 1.80 26.80 -9 44.60 -29.40 48.40 -13.40 2.40 -16.80 2.40 -28.80 -0.80z"/>
  <path d="M1963 2047.80 c-94.20 -8.60 -171.40 -42.20 -190.20 -82.40 -6.20 -13.60 -6.80 -39.80 -0.80 -52.80 11.20 -24.80 40.80 -46.20 87 -62.60 24.20 -8.40 56.60 -16 69.20 -16 l10.40 0 -1.40 31.80 -1.40 31.80 7.40 6 c24.60 20.40 64.80 29.40 95.40 21.40 23.40 -6 39 -16.80 51.60 -35.60 l8.20 -12.40 -1.20 -22.40 -1.40 -22.60 6.80 0 c18.60 0 71.40 13.40 98 25 32.40 13.80 57.20 33 67 51.80 4.80 9 5.40 12.40 5.40 29.20 0 23.20 -4 32.80 -20.80 48.60 -33.60 31.80 -98.20 54.20 -178.20 61.40 -26.40 2.20 -84.60 2.20 -111 -0.20z"/>
  <path d="M1847.40 1239 c-76 -12 -162.80 -46.80 -245 -98 -161.80 -101 -276.80 -250.60 -318.40 -414 -4.80 -19 -16.60 -77.40 -20.20 -100 -2.80 -16.60 -3.80 -77.60 -1.40 -80 0.60 -0.80 14.60 -0.40 31 1 209.40 16.20 402 139.40 527.20 337.60 18.40 29 53 99.20 65.20 132.40 24.80 67.60 40.60 143.20 42.60 204 l0.60 19 -32 0.40 c-19 0.20 -39 -0.80 -49.60 -2.40z"/>
  <path d="M2104 1232.20 c-3.20 -6.20 -2.40 -17.40 4 -56 38.80 -229.80 155 -414 331 -524.20 46 -28.80 93.40 -51 151.20 -71 57.60 -19.80 100.60 -28.40 147.80 -29.40 l25 -0.60 -0.20 37 c-0.40 42.60 -4.60 69.60 -19.80 126.20 -27.60 103.20 -69.60 187.80 -132.20 266.80 -19.60 24.80 -63.40 70.20 -88.40 91.60 -43.60 37.60 -98.80 73.60 -152.40 99 -68.20 32.60 -108 44 -199.80 57.40 -55.60 8.20 -63.20 8.60 -66.20 3.20z"/>
 </g>
 <g fill="#ffffff">
  <path d="M1540.20 3395.60 c-23.20 -2.60 -45.80 -17.60 -60.40 -40 -10.20 -16 -14.60 -33.20 -13.40 -54.20 1.60 -32 18.40 -55 53.60 -73 l19 -9.80 0.40 -158.80 c0.60 -219.40 1.40 -305.20 2.80 -306.60 0.60 -0.60 10.20 2.40 21.20 7 l20.20 8.20 0.80 13.20 c0.40 7.40 0 108 -1 223.40 -0.80 115.60 -1 211.80 -0.60 214 0.60 2.20 7.20 8.60 14.80 14.40 24 17.80 34.20 33.60 38.60 59.80 3 18.80 -0.20 38.40 -9.40 56.80 -16.60 33 -48.80 50 -86.60 45.60z m27.20 -48 c19 -5.60 29.60 -37.60 19.40 -57.80 -5.80 -11.40 -22.80 -21.80 -35.80 -21.80 -14.60 0 -31 11 -37.20 25 -4.40 9.60 -4.80 27 -1 34.80 4 7.60 15.40 17.40 23.60 19.80 13.60 4.40 17 4.40 31 0z"/>
  <path d="M2372 3395.60 c-23.80 -3.60 -46.60 -19.20 -59 -40.60 -17 -29 -16.80 -70.20 0.60 -95.40 5.80 -8.40 11.20 -13.60 35 -33.80 l6 -5.20 -0.80 -172.80 c-0.40 -95 -0.80 -193.40 -0.80 -218.60 l0 -45.60 21.40 -7.80 21.20 -7.60 1.20 5 c0.80 2.80 1.20 103.60 1.20 223.80 -0.20 120.40 0.20 219.80 1 220.80 0.60 1.20 8.80 5.80 18.20 10.40 19 9.20 35.80 23.40 43.40 36.40 31.60 54 -6.20 126.40 -68.60 131.80 -5 0.40 -14 0 -20 -0.80z m33.80 -50.40 c5 -2.20 11.80 -7.60 15 -11.80 5.60 -7 6.20 -9.20 6.20 -21 0 -16.40 -4.80 -26.60 -16.60 -35.80 -15.80 -12 -36 -10.60 -51.20 3.40 -12.80 11.80 -16 25.60 -10 43.40 8.40 25.20 31.40 34 56.60 21.80z"/>
  <path d="M1820.60 3263.80 c-21.40 -8.40 -41.20 -33 -46.40 -57.40 -3.20 -15.60 -2.80 -45.20 1 -58.60 2.40 -8.40 6.40 -15.20 14.60 -24.80 6.20 -7.40 13 -15.60 15 -18.20 3.40 -4.20 4.20 -9.40 5.60 -38.40 0.80 -18.40 0.80 -46.80 0.20 -63.40 -1.40 -36 0 -33.40 -36.40 -64.80 -26 -22.60 -140.20 -136.40 -147.80 -147.60 l-4.40 -6.20 30.40 12 c16.80 6.40 40.20 16 52.20 21 l21.60 9 39.40 38 c21.60 21 48.20 44.80 58.80 53 11.20 8.60 22 18.80 25.60 24.20 l6.20 9.20 -1.40 69.60 -1.40 69.60 7.80 3.20 c41.60 17.20 62.40 32.40 73 53.20 19.60 39 -2.60 89.60 -49.80 112.80 -14.20 7 -17 7.80 -34.40 8.20 -15.40 0.60 -21 -0.20 -29.40 -3.60z m57 -53.40 c7.20 -5.40 12.80 -16.40 13.80 -28.40 1.20 -11.80 -5.40 -24.20 -17 -32.60 -7.20 -5.20 -10.80 -6.40 -22.40 -7 -11.60 -0.80 -15 -0.20 -20.80 3.40 -15.20 9.40 -21.20 30.60 -13.40 46.80 10.40 21.20 41.60 30.60 59.80 17.80z"/>
  <path d="M2064.80 3264.40 c-26 -9.20 -49.20 -29.60 -61 -53.40 -5.20 -10.60 -6.60 -16.40 -7.40 -29.20 -1.20 -20.20 1.80 -31 12.60 -45.60 10.40 -14 26 -24.80 53 -36.40 15.40 -6.80 20.40 -9.80 21.20 -13.40 0.80 -2.40 0.40 -33 -0.80 -67.80 -2.60 -79.20 -4 -75 30.60 -101.20 8.80 -6.80 31 -26.40 49.40 -43.80 l33.20 -31.60 23.80 -9.20 c43.80 -17 77.20 -29 79.20 -28.20 2.40 0.80 -112.40 113.80 -138 135.80 -30.40 26.20 -32 28.40 -33.80 47 -0.80 8.60 -0.80 37 -0.20 63.20 1.20 53.40 0 48.60 19 70 14.40 16.40 18.20 26 19.80 50.40 1.20 20.40 -2.40 41.60 -9.80 56.80 -5.80 12 -22 27.80 -34.60 34.20 -13.60 6.60 -41.20 7.80 -56.20 2.40z m38.60 -54.60 c25.20 -15.60 26.40 -47 2.60 -63.20 -5 -3.40 -9.40 -4.60 -18 -4.60 -14.40 0 -26.60 6.20 -35.80 18 -6.20 8.40 -6.60 9.60 -5.80 22.40 0.80 14.20 4 20.80 14 28.20 10.60 8 29.40 7.60 43 -0.80z"/>
  <path d="M1312 3143.80 c-41.80 -7 -66.20 -41.60 -63.40 -89.80 1.80 -31.40 11.60 -48.80 37.80 -67.40 l16.60 -11.80 1.60 -15 c0.80 -8.20 1.20 -54.80 1 -103.80 l-0.60 -89.20 -7 -11.80 c-4.60 -8 -22.40 -27.60 -53 -58.60 -25.20 -25.60 -48.20 -50 -51.20 -54.20 -4.80 -7.20 -11.60 -31 -9.40 -33.20 0.40 -0.40 15.80 5 34 12.20 l33.40 13.20 12 14.40 c6.60 8 26.20 28.20 43.60 44.80 21.60 20.40 33.80 33.60 37.80 40.80 5.60 10.40 5.80 11.40 6.60 44.60 0.40 18.80 -0.40 54.80 -1.80 80 -3.40 65.80 -3.60 105 -0.40 110.40 1.20 2.40 8 7.40 14.80 11 34.20 18.20 54.40 54.20 51 91 -4.40 46.80 -53 80.80 -103.40 72.40z m43.80 -51.20 c8.40 -6.40 14.80 -19.60 15 -31.60 0.40 -39.80 -58 -56.80 -74.80 -22 -6.40 13.20 -5 30 3.20 40.40 8.40 10.40 15 14.80 26 17.60 11.20 2.80 23 1 30.60 -4.40z"/>
  <path d="M2595 3143.80 c-16 -2.40 -38 -13.20 -49.60 -24.60 -27 -26.20 -31 -71.40 -9.60 -104.80 9.20 -14 22.20 -25.60 38.20 -34.20 6.60 -3.60 12.80 -8 13.80 -9.80 3.80 -7.40 4.20 -19.80 2.20 -64.60 -1.20 -25.80 -3 -62 -3.80 -80.80 -0.80 -18.60 -1 -44.40 -0.20 -57 2 -33.40 4.60 -37.60 51 -80.40 6.80 -6.20 15.40 -10 55.60 -24.20 26 -9.20 47.40 -16.40 47.40 -15.80 0 0.60 -21.40 22.80 -47.60 49.20 -40.80 41.20 -48.60 50.20 -54.20 61.60 l-6.60 13.40 0.20 87.60 c0.20 48.20 0.80 93.60 1.40 101.20 l1.40 13.60 16.60 11.80 c28.80 21 37.40 37.60 37.60 73 0.20 15.60 -0.80 25.20 -3.20 33.20 -11.60 37.20 -47.80 57.80 -90.60 51.60z m29 -51.20 c16 -10.20 23 -22.40 21.40 -38.60 -2.60 -29 -28.20 -42.20 -55.20 -28.80 -12 6 -21 18 -23.20 30.60 -2.20 13.40 6.60 32.60 18 38.80 10.40 5.60 28.40 4.60 39 -2z"/>
  <path d="M813.60 3078 c-31 -5.40 -56.60 -29.80 -66.80 -63.80 -6 -19.40 -2.40 -51.40 7.80 -68.80 5 -8.40 21.20 -24.60 36.40 -36.60 7.60 -5.80 8 -6.80 8 -17 0 -6 -0.80 -107.40 -1.80 -225.20 -1.20 -152.40 -1 -214.60 0.40 -214.60 1.20 0 11.60 3.60 23 8.20 l20.60 8.20 -0.20 214.60 c-0.20 118.20 0.20 215.60 0.80 216.60 0.60 1 9.60 6 19.80 11.40 30.60 15.60 45.80 33.80 51.60 61.20 8.40 40.80 -16 86.40 -54.40 101.60 -11.80 4.60 -32.40 6.60 -45.20 4.20z m35.80 -50.40 c17.20 -8 25 -23.80 20.80 -42.40 -4.80 -21.80 -19.40 -34 -40.20 -34 -31.40 0 -49.40 30.80 -35 59.80 10.40 21.40 31.20 27.60 54.40 16.60z"/>
  <path d="M3065.40 3078 c-32 -5.40 -60.80 -34.60 -68.60 -69.60 -4.60 -21 -2.80 -37.40 6.20 -55.80 9 -18.20 21.20 -29.40 46 -42 10.40 -5.20 19 -11 19.40 -12.60 0.40 -1.60 0.60 -85 0.40 -185.40 -0.40 -167 0 -182.40 3 -183.60 13.40 -5.40 41 -15 41.40 -14.40 0.40 0.40 0 87 -1 192.40 -0.80 105.60 -1 193.20 -0.20 194.60 0.80 1.60 8 8.20 16.20 15.20 26.60 22.20 35.20 37.60 37.20 66.20 2 27.80 -7.40 53.20 -26.20 72.20 -12.60 12.40 -23.20 18.20 -41 22 -14.60 3 -18.60 3.20 -32.80 0.80z m35.60 -51 c10.80 -6.20 17.20 -18 18.40 -33.80 1.20 -16.20 -4.60 -27.60 -18.40 -36.20 -18.80 -11.60 -42 -6.60 -54.40 11.60 -16.20 24.20 -7.40 52.20 19.40 61.60 13 4.40 23.20 3.60 35 -3.20z"/>
  <path d="M521 2949.60 c-34.80 -6 -67.60 -35.20 -79 -70.20 -1.20 -4.20 -2.40 -13.80 -2.40 -21.40 0 -15.60 5.60 -30.20 16.40 -44 8.40 -10.60 29.20 -24 51.60 -33.20 l18.80 -7.80 -0.60 -70 c-0.80 -78.80 -1.40 -75.20 14.60 -90.20 4.80 -4.40 16.20 -14 25.60 -21.40 19.20 -14.80 92.20 -86.20 137.60 -134.40 l30.20 -31.80 21.60 8.60 c11.80 5 22 9.20 22.40 9.40 3.80 3 -124 134.60 -186.80 192 l-20 18.20 -0.60 36.60 c-0.60 20 -0.20 49.40 0.60 65 l1.40 28.40 12.80 14.40 c16.20 18.20 20.40 26.60 23.20 46.20 5 33.20 -5.80 70.60 -25 87 -17.80 15.40 -41.20 22.40 -62.40 18.60z m23 -56.40 c5 -2.40 12 -8.40 15.60 -13.20 6.40 -8.40 6.80 -9.60 6 -22.20 -1.20 -23.20 -14.80 -35 -38 -33.40 -12.40 1 -24.60 7.60 -32 17.80 -11.60 15.60 -5.60 43 11.40 52.40 11.20 6 22.80 5.60 37 -1.40z"/>
  <path d="M3350.60 2946.40 c-21.40 -8.60 -37.80 -26.20 -44.60 -48.40 -8.20 -25.60 -7.20 -60 2.20 -78.40 2.20 -4.20 8.40 -12.60 13.80 -18.60 18.20 -20 16.80 -13.80 17 -84.60 l0 -63 -19.80 -18.20 c-36.60 -33.80 -144.20 -139.60 -144.20 -142 0 -1.20 10.60 -5.60 23.40 -10 l23.40 -7.80 54.80 53.40 c30.20 29.40 62 58.80 70.60 65.40 40 30.60 38.80 27.40 37.20 98.80 -0.80 30.80 -1.20 61.40 -0.80 68 l0.80 12 19.20 8 c33.80 14 54.20 31.80 63.20 55 4.20 10.60 4.60 32.40 1.20 43.40 -9.60 29.60 -36 56.60 -64.80 66.60 -15 5 -40.40 5.40 -52.60 0.40z m46.60 -49.40 c8.80 -1.80 18.80 -13 21.80 -24.20 4.60 -18.20 -3.40 -34.80 -21.20 -44.40 -7.20 -3.80 -11 -4.60 -21.20 -4 -20.60 1.20 -31 11.60 -32.20 32.60 -1 14.80 3 23.20 15 32.40 7 5.40 23.20 10.80 28.60 9.60 1.60 -0.40 5.80 -1.20 9.20 -2z"/>
  <path d="M1929 2857.60 c-5.40 -2 -14.40 -5.60 -20 -7.60 -5.40 -2 -16.80 -6.40 -25 -9.60 -8.20 -3.20 -142.80 -54.60 -299 -114.20 -341.20 -130.20 -310.20 -118.20 -452 -175.60 -29.60 -12 -109.60 -44.40 -177.40 -71.80 -68 -27.40 -123.60 -50.60 -123.60 -51.40 0 -0.80 3.80 -7.20 8.40 -14 13.80 -20.60 42 -47 84 -78.20 60.80 -45.20 86 -71.40 105.40 -110.40 27.40 -55 35.60 -127 25 -222.80 -1.60 -14.80 -3.20 -29.20 -3.40 -31.80 -0.40 -4.80 1.60 -5.40 200.60 -55.20 110.60 -27.60 203.40 -51 206.60 -51.60 5.20 -1.40 5.40 -1.20 5.40 6.20 0 11.60 5 28.60 17.80 60.40 16.60 41 19 49.80 19 72 0.20 30.40 -9.80 57.20 -36 96.40 -19.40 28.60 -45.80 92.60 -53.80 130 -1.60 8 -4.40 31.80 -6 52.60 -1.80 21 -4.40 43.40 -5.80 50 -2.80 11.40 -2.80 12.60 1.80 23.60 17 42.40 52.40 71.20 104 84.60 16.60 4.40 26 5.40 55 6.20 38.20 1.20 63 -1.40 101.20 -10.40 42.80 -10.20 110.40 -36 121.80 -46.80 30.20 -28.60 71.60 -29.40 132.80 -2.20 9.40 4.20 37.40 17.20 62 29 79.60 37.80 120 52 173.20 60.20 33.20 5 41.20 4.20 71.40 -8 54.20 -21.80 92.80 -40.80 201 -98.40 111.40 -59.40 151.40 -78.80 202.40 -97.80 51 -19 104.80 -30.20 134.20 -28.40 22.40 1.60 84 13.20 129 24.80 109.40 27.60 194.80 64.60 292.60 126.40 48.40 30.40 48.80 30.80 46.20 32.40 -3.20 1.60 -96.40 34.60 -546.80 192.80 -182.60 64.20 -412.80 145.20 -511.60 179.80 l-179.60 63.20 -25.40 -0.20 c-20.20 -0.20 -27.40 -1 -35.40 -4.20z"/>
  <path d="M1032.80 2825 c-45.80 -10 -74.40 -50.40 -67 -94.60 4.80 -28.60 23.60 -53.80 51 -68.40 9.60 -5.20 13.60 -8.60 15.20 -12.80 2.20 -6.40 2.40 -35.20 0.20 -76.80 -0.60 -14.40 -0.80 -26.40 -0.20 -26.40 0.60 0 10 3.60 21.20 8.20 l20.20 8.20 1.20 30.20 c0.80 16.40 1.40 37.40 1.40 46.60 l0 16.40 15.80 11 c19 13.40 28.80 24.40 34.60 39.20 3.60 9.40 4.40 15.20 4.60 36.20 0 30.40 -4.20 44.20 -18.60 60.20 -11.40 12.80 -22.60 19.20 -39.60 22.80 -16.60 3.60 -24 3.60 -40 0z m34.40 -51 c22.20 -12.60 28.40 -40 13.40 -59.60 -16.20 -21.20 -53 -14.60 -66.80 12 -8.20 15.80 -2.40 39.40 12.20 49.20 10.20 6.80 27.80 6.20 41.20 -1.60z"/>
  <path d="M2838 2826 c-25.80 -5.40 -48 -25.40 -56.20 -50.20 -3.80 -12 -4.60 -18.80 -4.60 -34.80 0.40 -33.60 9.60 -51.60 35.80 -71 7.80 -5.60 15.20 -11 16.80 -11.80 2 -1.20 3.20 -8.20 4 -23.40 l1.20 -21.60 18 -6.40 c10 -3.60 19.20 -6.60 20.60 -6.60 1.80 -0.20 2.40 5.60 2.40 22.60 0 12.60 0.80 25.20 2 28 1.20 3.20 5.60 6.80 13 10.40 17.40 8 35.60 26.40 44.60 44.40 7.20 15 7.40 15.60 7.40 38.20 0 26.20 -2.80 35.40 -16.20 51.60 -19 23.20 -58.60 36.80 -88.80 30.60z m50.40 -55.80 c23.80 -25 6.60 -65.20 -28.80 -67.80 -6.60 -0.60 -14.20 0.20 -17.60 1.60 -13.60 5.60 -23.60 24.40 -21.40 40.40 4.20 31.40 47 47.80 67.80 25.80z"/>
  <path d="M2155 2453.80 c-18 -2.40 -55 -11.80 -77.80 -19.80 -25.40 -9 -51.60 -20.40 -106.20 -46.60 -73 -34.80 -98.80 -43.40 -130 -43.40 -27.20 0 -45 6.20 -68.60 24.20 -21.80 16.40 -91.80 41.60 -142.20 51 -26.60 5 -81 6 -104 2 -23.20 -4 -42.80 -10.80 -57.80 -19.60 -16.60 -9.80 -34.80 -28.60 -42.40 -44.20 l-6.40 -13.20 3 -21.60 c1.80 -11.80 4.20 -34.20 5.20 -49.60 2.20 -30 7.60 -55.20 18.40 -84.60 11.40 -31.60 26.40 -63.20 36.60 -77.40 23 -32.40 38.20 -69.80 40.40 -99.20 1.40 -21.20 -2.40 -42.60 -11.80 -66.80 -3.80 -9.80 -10.80 -27.80 -15.40 -40 -6.60 -16.80 -8.80 -25.60 -9.60 -37 l-0.80 -15 110.60 -26.60 c88 -21 131 -30.20 208.80 -44.20 54 -9.80 104.80 -18.40 113.20 -19.20 l15.20 -1.20 1.20 -75.20 c0.80 -41.40 1.40 -120 1.40 -174.80 l0 -99.60 -5.60 -3 c-9 -4.60 -33.40 -8.80 -65.40 -11.20 -34.40 -2.60 -46.60 -4.20 -80 -11.20 -73.40 -15 -134.80 -36 -199 -68 -165.60 -82.60 -303.40 -218.40 -389.20 -383.80 -45.80 -88.40 -76 -187.80 -86.80 -286 -3.40 -31.20 -5.80 -97.40 -6.40 -171 -0.60 -65 -0.20 -71.80 3 -79.40 4.60 -10.40 3.20 -10.20 77.40 -11.80 74.20 -1.60 122.80 2 187.80 14.40 151.60 28.60 292.80 92.60 411.20 186.40 29.80 23.60 94.20 88 117.80 117.40 42.40 53.20 80.40 118 102.20 174.60 3.20 7.80 6.80 14.40 8.20 14.40 5.40 0 16.40 -18.80 30.20 -51 18.80 -44.40 68.20 -114.40 127 -180.20 132.40 -148.20 306.40 -241.60 504 -270.80 41 -6 122.80 -12.40 160.60 -12.40 36.60 0 54.20 2 75.80 8.80 l13.60 4.20 -1.20 54.20 c-4.80 195 -12.60 265.80 -40.60 361.20 -35 120.20 -104.60 237.20 -197.40 331.60 -52.20 53.20 -88.20 83.40 -142.20 119.20 -41 27.20 -60.20 38.20 -103.20 59 -80.20 38.60 -151 58.80 -286.80 82 -24.80 4.20 -45.60 8.20 -46.20 8.80 -1.80 1.60 -4.60 166.60 -4.80 266.60 l0 86.40 27.60 1.40 c27 1.40 34 3 390.40 86 683.80 159.60 733.40 171.20 894 210.40 l161 39.20 9 8.40 c9.80 8.80 24.20 14.80 47 19 29.40 5.40 30.80 6 34.80 13.80 8.80 17 10 43 3 66 -3.20 10.80 -28.80 53.40 -35.40 58.80 -2.40 2 -9.40 6 -15.40 9 -6 3 -14.20 7.40 -18 9.60 -8.20 5 -165 74.60 -196 86.80 -11.60 4.60 -46.60 18.20 -78 30.20 l-56.80 21.80 -34.20 -21.80 c-96.40 -61.60 -146.60 -88.60 -215 -115.20 -68 -26.60 -148 -47.80 -229 -61 -30.40 -5 -44.60 -5 -74.40 0 -76.80 13.20 -144 40.80 -291.60 120.20 -99.20 53.20 -170 87.80 -217 106 -16 6.20 -25 6.80 -51 3.60z m-88 -411.80 c97.60 -8.80 174.40 -40.80 195 -81.40 7 -13.60 6.80 -31.80 -0.40 -45.80 -13.60 -25.80 -52 -49.80 -103.60 -64.60 -19.40 -5.60 -54 -13 -55 -11.80 -0.20 0.40 0.20 9.20 1 19.60 1.60 17.80 1.40 19.60 -3.40 29.60 -14 29.60 -45.40 46.60 -86.60 46.60 -30.80 0 -57.60 -8.60 -77 -24.80 l-7.60 -6.20 1.40 -31.60 c1.60 -37 4.40 -34.20 -27.40 -26.80 -52.60 12.60 -98.20 35.40 -116 58.20 -25 32 -14.80 66 28 93.80 54.80 35.20 157.40 53.60 251.60 45.20z m-144.60 -820 c-1.80 -39.80 -12.80 -102 -25.40 -146 -21.80 -75.20 -61.80 -157.80 -108.40 -223.40 -68.80 -97.20 -164.80 -181.60 -262.60 -230.60 -60.60 -30.40 -124.20 -51.60 -186 -61.80 -25.60 -4.20 -70.20 -8.40 -72 -6.80 -2 1.80 -0.60 52 1.80 67.60 3.40 22 15.40 80.60 20.20 100 46.80 183.60 185.80 348.60 377.20 447.40 86 44.40 166.20 67.80 229.80 67 l26 -0.40 -0.60 -13z m241.80 1 c91.80 -13.40 131.60 -24.80 199.80 -57.40 53.60 -25.40 108.80 -61.40 152.40 -99 25 -21.40 68.80 -66.80 88.40 -91.60 62.60 -79 104.60 -163.60 132.20 -266.80 14.20 -52.80 19.20 -84 19.60 -120.20 l0.40 -31 -19 0.60 c-83.40 2.60 -201.60 43.20 -293 100.40 -176.40 110.60 -292.40 294.60 -331.20 525.40 -4.80 28.60 -5.60 38.20 -4 42 1.20 2.40 3.20 4.60 4.60 4.60 1.40 0 23.80 -3.20 49.80 -7z"/>
  <path d="M785 2409.60 c-11 -4.40 -105.40 -42.40 -210 -84.40 -104.40 -42 -198.60 -79.80 -209 -83.80 -25.20 -9.80 -48.40 -23.60 -61.20 -36.40 -17 -16.80 -16.60 -30.60 0.80 -47.40 12.80 -12.40 25.80 -20.80 42.80 -27.80 8.80 -3.60 116.80 -30.60 280.40 -70 146.40 -35.20 282.40 -68 302.20 -72.80 19.80 -4.80 49.40 -12 65.80 -16 16.40 -3.80 30 -6.80 30.60 -6.40 0.40 0.60 2 11.20 3.60 23.60 12.20 93.20 6 168.20 -17.80 220.40 -17 37.20 -41.40 64 -95 103.80 -59.20 44.20 -78.20 62 -98.80 93.20 -4.60 6.80 -9.60 12.40 -11.40 12.20 -1.60 -0.20 -12 -3.80 -23 -8.20z"/>
 </g>
</svg>