<?xml version="1.0" encoding="utf-8"?>
<!DOCTYPE svg PUBLIC "-//W3C//DTD SVG 1.0//EN" "http://www.w3.org/TR/2001/REC-SVG-20010904/DTD/svg10.dtd">
<svg version="1.0" xmlns="http://www.w3.org/2000/svg" width="2135px" height="1865px" viewBox="0 0 2135 1865" preserveAspectRatio="xMidYMid meet">
 <g fill="#ffffff">
  <path d="M795.3 1861.5 c-9 -2 -15.7 -5.9 -23.9 -14 -11.2 -11.1 -17.4 -25.3 -17.4 -40.5 0 -20.7 10.9 -36.4 33.1 -47.5 6.3 -3.1 11.7 -6.2 12.1 -7 1.1 -1.8 1 3.3 0.9 -139.5 -0.1 -71.2 0.1 -133.9 0.5 -139.2 0.5 -7 0.3 -9.8 -0.5 -9.8 -0.6 0 -1.1 -0.4 -1.1 -1 0 -2.2 7 -0.8 18.2 3.7 9 3.6 11.8 5.1 11.8 6.5 0 1 -0.6 1.8 -1.2 1.8 -1 0 -1.2 3.9 -1 16.7 0.2 9.3 -0.1 71.7 -0.6 138.8 -0.5 72.2 -0.5 122.8 0 124 0.5 1.1 3.2 3.5 5.9 5.4 13.8 9.4 23 22 25.9 35.2 1.9 8.7 0.8 24.9 -2.2 33 -9.3 25.1 -34.6 39 -60.5 33.4z m22.6 -29.1 c8.5 -4.3 13.3 -13.4 13.3 -25.5 0 -9.2 -5.7 -17.5 -15 -21.5 -5.5 -2.5 -15.7 -2.3 -20.7 0.3 -15.8 8.3 -20 30.2 -7.8 41.4 8.5 8 20.6 10 30.2 5.3z"/>
  <path d="M1311 1861.9 c-17.6 -3.1 -32.7 -16.7 -39.1 -35.2 -2.5 -7 -2.9 -9.7 -2.9 -18.8 0 -12.9 2.2 -20.9 8 -29.7 3.8 -5.6 13.6 -14.9 20.7 -19.6 1.8 -1.2 3.6 -3 4.1 -4.1 0.5 -1.1 0.5 -45.1 0.1 -100 -0.4 -53.9 -0.8 -114.4 -0.8 -134.4 -0.1 -31.8 -0.3 -36.2 -1.6 -35.7 -1 0.3 -1.5 -0.1 -1.5 -1.3 0 -1 0.8 -2.2 1.8 -2.6 17.7 -7.1 32.2 -10.7 29.4 -7.2 -0.7 0.8 -1.1 43.3 -1.2 136.2 -0.1 149.4 -0.1 140.4 0.5 142.6 0.3 0.9 3.8 3.1 7.8 4.9 20.8 9.6 31.9 21.1 36.2 37.7 1.8 6.8 1.9 17.1 0.4 24.5 -2.7 13 -13.3 28.4 -24.8 35.7 -10 6.5 -24.7 9.2 -37.1 7z m18.6 -28.4 c9.3 -2.7 18.4 -13.6 18.4 -22.1 0 -5 -3 -13.6 -6.3 -18.1 -4.8 -6.3 -11.7 -9.7 -19.7 -9.7 -7.4 0.1 -12.1 1.8 -17.3 6.3 -5.3 4.7 -8.1 11.1 -7.9 18.5 0.3 19.5 14.7 30.5 32.8 25.1z"/>
  <path d="M981 1782.9 c-12.7 -2.2 -25.5 -11.9 -31.5 -24.3 -5.1 -10.3 -6.8 -19.5 -6.2 -34.1 0.7 -17.9 1.7 -20.2 16.8 -38 l5.6 -6.5 0.6 -11.3 c0.9 -14.3 0.9 -56.6 0 -63.5 -0.7 -6.6 -3.7 -10.1 -21.7 -25.7 -16.6 -14.3 -97.6 -95.9 -97.6 -98.2 0 -1.8 11.1 1.9 38.3 12.9 25.3 10.2 32.7 13.6 32.7 14.9 0 1 -0.7 1.9 -1.6 2.1 -2.1 0.4 42.3 43.1 54.6 52.6 10.4 8 18.4 15.6 21.2 20.1 2.5 4 2.5 3.7 1.3 53.1 l-0.8 36.5 10.4 4.5 c15.2 6.5 22.5 10.8 29.6 17.4 18.8 17.5 19.1 44.6 0.7 65.6 -14.4 16.5 -34.6 24.9 -52.4 21.9z m22.8 -32.4 c7.7 -3.3 12.2 -10.2 12.9 -20 0.4 -5.2 0.1 -6.7 -2.4 -11.5 -4.9 -9.4 -15 -14.6 -26.5 -13.8 -10 0.7 -17 7.8 -18.7 19 -1.7 10.5 3.4 19.4 14.1 24.7 7 3.6 14.5 4.1 20.6 1.6z"/>
  <path d="M1132.5 1783.3 c-17.8 -2.4 -37.8 -17.1 -46.3 -34.1 -9.8 -19.6 -7.4 -37.7 6.9 -52.2 6.7 -6.8 14.5 -11.6 29.4 -18 l11 -4.7 0.6 -5.4 c0.4 -3 0.3 -22.1 -0.2 -42.6 -0.5 -21.9 -0.5 -38.1 0 -39.5 2 -5.3 7.7 -11.2 18.8 -19.8 15 -11.6 50.3 -45.4 48 -45.8 -2.2 -0.4 -2.2 -2.9 0.1 -4.1 0.9 -0.5 15.2 -5.9 31.7 -12.1 25.6 -9.6 38.5 -13.6 38.5 -11.8 0 1.1 -78.1 78 -87.5 86.1 -6 5.1 -13.5 12.1 -16.6 15.5 l-5.6 6 -0.7 17.9 c-0.4 9.8 -0.2 27.6 0.3 39.7 0.9 18.6 1.3 22.2 2.8 24 1 1.1 4.6 5.2 8 8.9 9.9 10.9 13.3 20.4 13.3 37.5 0 28 -14.6 48.8 -37.7 53.7 -6.7 1.5 -9 1.6 -14.8 0.8z m12 -34.1 c5.1 -2.6 11 -8.7 13 -13.4 3.1 -7.5 1.4 -17.5 -3.8 -23.5 -10.6 -12.1 -31.5 -8.8 -40.4 6.4 -3.8 6.6 -3.8 14.8 0.2 22.1 4.5 8.2 10.4 11.4 20.5 10.8 4 -0.2 8 -1.1 10.5 -2.4z"/>
  <path d="M654 1705.1 c-21.8 -5.9 -33.9 -23.8 -34 -50.1 0 -21.9 6.6 -34 25.6 -46.9 4.3 -3 8.1 -5.6 8.4 -5.8 0.3 -0.3 0.8 -28 1.1 -61.6 0.5 -45.4 0.3 -62.4 -0.5 -65.8 -2.4 -9 -10 -18.3 -36.6 -44.9 -31.4 -31.3 -33.3 -33.7 -36.4 -46.1 -1.2 -5.1 -2.8 -9.5 -3.4 -9.7 -2.2 -0.7 -1.2 -2.2 1.6 -2.2 2.6 0 42.3 15.3 45 17.3 2 1.6 1.5 4 -0.8 3.4 -1.6 -0.4 -1.8 -0.2 -1 1.3 2.1 3.9 18.5 21.3 32.5 34.5 18.3 17.2 20.7 19.8 24 26.3 4 8 5.1 25.2 3.6 55.2 -3.4 65.4 -3.8 82.7 -2 87.9 0.9 2.4 2.5 3.9 6.8 6 18.4 9.4 29.9 23.9 33.8 42.7 2.1 10.2 0.7 21.8 -3.5 30.8 -10.5 22.2 -39 34.5 -64.2 27.7z m28.2 -27.5 c4.5 -1.9 10.2 -8.3 11.9 -13.2 3.1 -9.2 0.3 -21.4 -6.3 -27 -7.5 -6.2 -16.9 -9 -24.9 -7.3 -14.3 3.1 -21.5 22.3 -13.3 35.6 3.1 5 10.4 10.6 15.8 12.2 4.8 1.4 13 1.2 16.8 -0.3z"/>
  <path d="M1446.2 1705.5 c-14.2 -3.4 -26.4 -11.9 -33.7 -23.5 -9.5 -15.1 -9 -38.7 1.3 -54.6 6.5 -9.9 14.6 -17 26 -22.8 7.7 -3.9 8.6 -6.4 8.4 -24.6 0 -8 -0.7 -24.6 -1.4 -37 -0.7 -12.4 -1.3 -35.8 -1.3 -52 l0 -29.5 2.8 -6 c2.2 -4.9 5.5 -8.7 18 -20.9 8.3 -8.1 14.4 -14.6 13.5 -14.3 -1.3 0.5 -1.8 0.1 -1.8 -1.2 0 -1.5 5.2 -3.7 28.9 -12 26 -9.1 35.1 -11.6 35.1 -9.3 0 0.4 -12.5 13.1 -27.8 28.3 -27.9 27.7 -36.4 37.9 -39.8 47.1 -1.4 3.7 -1.6 10.7 -1.5 53.3 0.1 27 0.4 55 0.7 62.3 l0.7 13.2 9.1 6.4 c13.9 9.8 18.6 15.6 22.6 28.2 1.8 5.5 2.2 9.4 2.3 18.9 0 10.5 -0.3 13 -2.7 19.9 -1.5 4.3 -4 9.8 -5.7 12.2 -3.3 4.9 -11.1 11.4 -17 14.5 -9.1 4.6 -25.5 6.1 -36.7 3.4z m19.8 -29.1 c6.9 -3.2 10.5 -6.6 13.7 -12.7 6.9 -13.6 -0.5 -30.6 -14.8 -33.6 -11.5 -2.5 -25.8 5.1 -30.4 16.1 -3.4 8.3 -0.7 21.7 5.6 27.5 6.4 5.8 16.8 6.9 25.9 2.7z"/>
  <path d="M349.1 1664.4 c-9.8 -2.1 -16.8 -6 -24.4 -13.5 -10.4 -10.4 -16.7 -25.9 -16.7 -41 0 -6.6 2.7 -17.7 5.7 -23.9 2.9 -6 13.7 -17.4 21.7 -22.9 2.8 -1.9 5.3 -4.7 6 -6.5 1 -2.4 1.1 -16.2 0.5 -62.1 -0.4 -32.4 -0.8 -94.4 -1 -137.7 -0.1 -43.4 -0.6 -78.8 -1.1 -78.8 -0.4 0 -0.8 -0.4 -0.8 -1 0 -2.2 6.2 -0.8 18.7 4.2 10 4 13.3 5.7 13.3 7.1 0 0.9 -0.7 1.7 -1.5 1.7 -1.3 0 -1.5 7.2 -1.7 57.8 -0.3 91 0.1 207.2 0.8 208.3 0.3 0.5 4.7 3 9.8 5.4 11.6 5.5 18.2 10.5 24.5 18.3 16.3 20.3 13.6 50.8 -6.3 70.7 -13.1 12.9 -29.7 17.8 -47.5 13.9z m19.1 -27.4 c6.5 -1.8 13 -7 16 -12.9 3.8 -7.3 3.8 -14 0 -22.4 -4.5 -9.8 -12.8 -15.2 -23.2 -15.1 -13.9 0.2 -25 11.3 -25 25 0 17.8 15.5 30 32.2 25.4z"/>
  <path d="M1738.3 1664.5 c-27.3 -5.9 -47 -39.1 -39.8 -66.8 4.3 -16.4 14.8 -27.4 35.1 -36.8 8.7 -4 9.4 -4.9 9.5 -11.4 0 -1.6 0 -52.2 0 -112.2 0 -98.4 -0.1 -109.3 -1.5 -109.3 -0.9 0 -1.6 -0.8 -1.6 -1.9 0 -1.5 2.6 -2.8 13.3 -6.5 12.7 -4.4 18.7 -5.6 18.7 -3.7 0 0.5 -0.4 1.1 -1 1.3 -1.1 0.3 -3.1 237 -2.1 240 0.3 0.9 3.1 3.5 6.1 5.8 12.9 9.6 20.5 18.6 24.3 28.8 1.8 4.7 2.2 7.9 2.2 18.7 0 15.7 -2 22.6 -9.4 33.2 -12.3 17.5 -32.8 25.4 -53.8 20.8z m24.3 -30.1 c3.9 -2.3 5.6 -4.3 8.2 -9.4 7.4 -14.7 2.8 -30 -11 -36.1 -10.3 -4.5 -21 -2.5 -28.5 5.3 -7.5 7.7 -10 21 -5.5 29.4 6.8 13 24.8 18.3 36.8 10.8z"/>
  <path d="M168.2 1585.5 c-19.2 -4.3 -37.6 -20.4 -44.9 -39.3 -2.2 -5.5 -2.6 -8.4 -2.7 -16.3 -0.1 -9.1 0.1 -9.9 3.7 -17.1 6.8 -13.8 17.9 -22.1 45.1 -33.7 l4.9 -2.1 -0.5 -42.8 c-0.5 -36.3 -0.4 -43.2 0.9 -45.9 1.9 -4 10.7 -12.7 20.3 -19.8 11.1 -8.3 47.4 -43.1 77 -74 27.7 -28.8 30.1 -31.6 28.2 -32.3 -0.7 -0.2 -1.2 -0.8 -1.2 -1.3 0 -2.2 7.4 -0.5 19.5 4.4 10.5 4.3 13.1 5.8 13.3 7.5 0.2 1.6 -0.1 2 -1.1 1.6 -0.9 -0.3 -5.6 4.5 -14 14.3 -13.7 16.2 -81.5 84.2 -96.3 96.5 -5 4.2 -11.3 10.1 -14.1 13.2 l-5.1 5.5 -0.7 16.6 c-0.7 15.6 -0.1 45.2 1.1 57.7 0.6 5.4 1 6.2 8.7 15 4.4 5.1 9.1 11.7 10.4 14.5 5.4 11.7 5.4 33.8 0 48.6 -7.8 21.6 -30.6 34.2 -52.5 29.2z m14.8 -32.6 c14.2 -6.4 19.9 -21.9 12.5 -34.4 -13.4 -22.9 -52.4 -4.3 -44 21 2.3 6.7 5.6 10.8 10.7 13.4 5.7 2.8 14.6 2.8 20.8 0z"/>
  <path d="M1923.2 1586 c-15.6 -3.3 -29 -16 -34.2 -32.5 -2.7 -8.8 -3.8 -26.3 -2.1 -36 1.6 -9 4.7 -14.8 12.5 -23.3 10.7 -11.7 9.8 -8 10.4 -44.1 0.3 -17.4 0.1 -35.2 -0.3 -39.5 l-0.7 -7.7 -5.6 -5.8 c-3.2 -3.1 -9.1 -8.5 -13.2 -12 -4.1 -3.5 -24.7 -23.2 -45.7 -43.8 -21.1 -20.6 -38.7 -37.2 -39.3 -36.8 -0.5 0.3 -1 -0.3 -1 -1.3 0 -2.8 19.9 -10.2 32.3 -11.9 3.5 -0.5 5.2 0.9 2.5 2.1 -2 0.8 61.7 63.2 74.7 73.4 14.1 11 18.1 14.7 21.3 20.2 3.1 5.2 3 1.8 1.7 53.7 -0.8 35.2 -0.8 36.3 1.1 36.9 6.8 2.6 26.3 11.8 29.8 14.1 7.5 5.1 15.1 13.5 18.6 20.7 6.6 13.3 5.1 30.5 -3.8 44.1 -13.5 20.8 -39.3 33.6 -59 29.5z m23.5 -32.1 c10.3 -3.9 16.3 -19.7 11.4 -30.4 -2.4 -5.3 -10 -11.9 -15.8 -13.9 -16.2 -5.5 -30.2 4.3 -30.4 21.4 -0.2 9.7 5.2 17 16.1 21.9 5 2.3 14.1 2.8 18.7 1z"/>
  <path d="M483.5 1508.1 c-8.7 -2.6 -10.9 -3.6 -17.4 -8.1 -17.3 -11.7 -24.7 -32.1 -19.6 -53.9 3.5 -14.7 15.2 -28.9 30.2 -36.9 11.7 -6.1 11.8 -6.8 10.3 -44.3 -0.9 -21.6 -1.5 -27.6 -2.6 -28.2 -0.8 -0.4 -1.4 -1.2 -1.4 -1.7 0 -2.1 6.1 -0.7 18.7 4.3 11.5 4.5 13.3 5.5 13.3 7.4 0 1.6 -0.4 2.1 -1.5 1.7 -1.3 -0.5 -1.5 1.3 -1.5 13.3 0 7.7 0.3 20.7 0.6 28.9 l0.7 14.9 8.1 5.5 c19.6 13.3 26 25 26 48 0 17.2 -3.3 26.8 -12.6 36.7 -6 6.3 -11.9 9.8 -20.8 12.4 -8.4 2.5 -22.2 2.4 -30.5 0z m23.3 -29 c6.9 -3.6 13.1 -11.5 14.7 -18.8 1 -5 -1.2 -13.8 -4.8 -18.6 -10.7 -14.1 -33.8 -10.4 -42.3 6.8 -2.3 4.8 -2.6 6.4 -2.2 11.8 1 12.5 7.8 20.2 18.8 21.7 5.3 0.7 10.8 -0.3 15.8 -2.9z"/>
  <path d="M1596 1508.1 c-16.8 -5.4 -27.1 -16.4 -31.5 -33.6 -3.3 -13.1 -1 -34.9 4.9 -44.9 3.1 -5.2 11.1 -12.8 20.2 -18.9 l7.1 -4.9 0.7 -6.6 c0.3 -3.7 0.6 -9.8 0.6 -13.6 0 -5.6 -0.3 -6.7 -1.5 -6.2 -1 0.3 -1.5 -0.1 -1.5 -1.3 0 -2 0 -2 16.9 -8.1 8.4 -3 14.1 -3.8 14.1 -2.1 0 0.5 -0.7 1.1 -1.5 1.5 -1.2 0.4 -1.5 3 -1.5 14.6 0 17.6 0.8 19.8 8.2 23.6 15.6 7.9 27.4 20.8 31.8 35 9.4 30.4 -6.7 58.3 -38 66 -7.9 1.9 -22.3 1.7 -29 -0.5z m32.8 -29.4 c8.6 -5.6 12.3 -20.8 7.4 -30.3 -2.3 -4.5 -8.4 -10.4 -13.4 -13 -5.3 -2.7 -15.6 -3 -21 -0.6 -7.5 3.3 -12.8 12.4 -12.8 21.9 0 18.6 24.5 32.2 39.8 22z"/>
 </g>
 <g fill="#ffc000">
  <path d="M866.5 1468 c-97.9 -37.4 -193.3 -73.9 -212 -81 -18.7 -7.2 -92.8 -36.8 -164.7 -65.8 l-130.8 -52.7 0 -3.7 c0 -2.7 1.3 -5.6 5.2 -11.5 8.4 -12.6 24.5 -27.8 48.9 -46 11.9 -8.9 25.8 -19.6 30.9 -23.9 34.7 -29.1 51.4 -65.5 55 -119.7 1.2 -19.1 0.3 -40 -3.1 -68 -1.2 -9.7 -1.9 -18 -1.6 -18.3 0.9 -1 254.9 -64.3 257.8 -64.4 2.5 0 2.6 0.3 3.7 7.9 1.3 9.3 5 20.8 12.6 39.1 8.4 20.4 9.9 26.9 9.9 43 0 10.7 -0.4 15.2 -2.2 21.5 -2.8 10.4 -11.4 27.7 -19.1 38.5 -7 9.8 -13.6 23 -21.4 42.7 -11 28 -15 44.8 -16.5 70.8 -0.6 9.4 -1.8 21.5 -2.7 27 l-1.7 10 3.7 7.9 c12 25.9 36.7 42.7 73.1 49.8 4.6 0.8 14.2 1.3 28 1.2 22.3 0 31.9 -1.3 55 -7 28.9 -7.2 63.7 -20.9 72.2 -28.4 11.2 -9.9 21.3 -13.5 37.8 -13.5 22.2 0.1 32 3.4 86 29.2 40.2 19.3 63.3 28.2 88 34.1 12 2.9 33 6.2 39.2 6.2 1.5 0 7.4 -1.8 13.2 -4.1 32.2 -12.5 67.8 -29.7 126.1 -60.9 103.7 -55.6 145.3 -72.7 193.5 -79.5 15.2 -2.2 23.5 -1.8 46 2 64 10.9 117.9 27.2 168.5 51.1 26.6 12.5 48.8 25 82.3 46.3 17.7 11.3 17.7 11.3 17.7 15 l0 3.6 -382.7 134.5 -382.8 134.5 -17.5 0.2 -17.5 0.3 -178 -68z"/>
 </g>
 <g fill="#649933">
  <path d="M999.5 531.3 c-9.1 -1 -24.5 -3.8 -35.5 -6.5 -10.9 -2.7 -37.6 -11.5 -46.5 -15.3 -1.6 -0.7 -7.9 -3.4 -14 -6 -51.2 -22.1 -104.9 -57.6 -143.5 -95 -18.5 -17.8 -31.1 -31.6 -44 -47.8 -0.8 -1.1 -2 -2.4 -2.6 -3.1 -6.2 -6.7 -31 -45 -37.5 -57.7 -1.7 -3.5 -3.4 -6.6 -3.8 -6.9 -1 -0.8 -8.8 -18.2 -14.7 -32.8 -11.2 -27.7 -21.1 -66.3 -27.5 -106.7 -2.3 -15.2 -3.2 -47 -1.2 -48.6 2.5 -2.2 38.8 0.8 57.3 4.7 4.1 0.8 9.7 1.9 12.5 2.4 2.7 0.5 7.2 1.6 10 2.4 2.7 0.8 8.4 2.4 12.5 3.6 4.1 1.2 9.1 2.5 11.1 3 1.9 0.5 4.9 1.6 6.5 2.5 1.6 0.8 3.5 1.5 4.2 1.5 0.7 0 5.2 1.5 10 3.4 27 10.5 58.5 26.7 81.2 41.9 11.1 7.4 32.2 23.4 42.5 32.2 16.6 14.1 45.4 43.5 58.5 59.5 1.7 2.1 3.9 4.8 4.8 5.9 1 1 2.4 2.9 3.2 4.1 0.8 1.2 2.2 3 3 4 0.8 1 2.2 2.8 3 4 0.8 1.2 2.5 3.4 3.8 4.8 1.2 1.5 2.5 3.5 2.8 4.5 0.3 0.9 1 1.7 1.5 1.7 0.5 0 0.9 0.7 0.9 1.5 0 0.8 0.5 1.5 1 1.5 0.6 0 1 0.7 1 1.5 0 0.8 0.5 1.5 1 1.5 0.6 0 1 0.5 1 1 0 0.6 0.9 2 2 3.2 1.1 1.2 2 2.8 2 3.5 0 0.7 0.4 1.3 0.8 1.3 0.5 0 1.7 1.8 2.8 4 1 2.2 2.2 4 2.7 4 0.4 0 0.7 0.7 0.7 1.5 0 0.8 0.4 1.5 0.9 1.5 0.5 0 1.5 1.6 2.2 3.5 0.7 1.9 1.6 3.5 2 3.5 0.4 0 1.3 1.6 2 3.5 0.7 1.9 1.6 3.5 1.9 3.5 0.4 0 1.5 1.9 2.6 4.3 1 2.3 2.2 4.4 2.6 4.7 1.3 1 14.4 29.1 20.2 43.2 17.8 43.7 28.8 91.4 31.2 136 l0.7 12.6 -18.4 -0.1 c-10.1 0 -19.7 -0.2 -21.4 -0.4z"/>
  <path d="M1150.5 527.3 c-4.9 -1.3 -5.2 -7.9 -1.5 -30.3 3.6 -21.9 9.9 -51.4 11.1 -51.8 0.5 -0.2 0.9 -1.9 0.9 -3.8 0 -1.9 0.5 -3.4 1 -3.4 0.6 0 1 -1.6 1 -3.5 0 -1.9 0.5 -3.5 1 -3.5 0.6 0 1 -1.6 1 -3.5 0 -1.9 0.5 -3.5 1 -3.5 0.6 0 1 -1.3 1 -2.8 0 -3.5 3.9 -15.2 5.6 -16.9 0.7 -0.7 1.5 -2.7 1.9 -4.5 1.3 -6.9 2.8 -11.8 3.6 -11.8 0.5 0 0.9 -0.9 0.9 -2.1 0 -1.1 0.7 -2.7 1.5 -3.5 0.8 -0.9 1.5 -2.6 1.5 -4 0 -1.3 0.5 -2.4 1 -2.4 0.6 0 1 -0.9 1 -2.1 0 -1.1 0.7 -2.7 1.5 -3.5 0.8 -0.9 1.5 -2.6 1.5 -4 0 -1.3 0.5 -2.4 1 -2.4 0.6 0 1 -0.9 1 -2 0 -2.1 6.6 -16.1 8 -17 1.2 -0.8 7 -12.8 7 -14.5 0 -0.8 0.9 -2.3 2 -3.2 1.1 -1 2 -2.5 2 -3.5 0 -1 0.9 -2.6 2 -3.5 1.1 -1 2 -2.3 2 -3 0 -0.7 0.9 -2.2 2 -3.3 1.1 -1.1 2 -2.9 2 -3.9 0 -1 0.7 -2.1 1.5 -2.5 0.8 -0.3 1.5 -1.5 1.5 -2.6 0 -1.1 0.5 -2 1 -2 0.6 0 1 -0.7 1 -1.5 0 -0.8 0.5 -1.5 1 -1.5 0.6 0 1 -0.7 1 -1.5 0 -0.8 0.5 -1.5 1 -1.5 0.6 0 1 -0.7 1 -1.5 0 -0.8 0.5 -1.5 1 -1.5 0.6 0 1 -0.7 1 -1.5 0 -0.8 0.5 -1.5 1 -1.5 0.6 0 1 -0.7 1 -1.5 0 -0.8 0.5 -1.5 1 -1.5 0.6 0 1 -0.7 1 -1.5 0 -0.8 0.5 -1.5 1 -1.5 0.6 0 1 -0.7 1 -1.5 0 -0.8 0.5 -1.5 1 -1.5 0.6 0 1 -0.7 1 -1.5 0 -0.8 0.7 -1.5 1.5 -1.5 0.8 0 1.7 -1.1 2.1 -2.5 0.3 -1.4 1.2 -2.5 2 -2.5 0.8 0 1.4 -0.9 1.4 -2 0 -1.1 0.7 -2 1.5 -2 0.8 0 1.5 -0.9 1.5 -2 0 -1.1 0.7 -2 1.5 -2 0.8 0 1.7 -1.1 2.1 -2.5 0.3 -1.4 1.2 -2.5 2 -2.5 0.8 0 1.4 -0.9 1.4 -2 0 -1.1 0.6 -2 1.3 -2 1.4 0 5.7 -5.2 5.7 -7 0 -0.5 0.7 -1 1.4 -1 1.6 0 6.6 -6 6.6 -7.8 0 -0.7 0.4 -1.2 0.9 -1.2 1 0 28.1 -26.6 28.1 -27.7 0 -0.4 1.5 -1.5 3.3 -2.3 1.7 -0.8 3.6 -2.4 4.1 -3.6 0.5 -1.1 2.2 -2.6 3.8 -3.2 1.5 -0.5 2.8 -1.7 2.8 -2.6 0 -1 0.8 -1.6 2.1 -1.6 1.2 0 2.3 -0.8 2.6 -2 0.3 -1.1 1.2 -2 2 -2 0.8 0 4.9 -2.6 9.1 -5.8 8.5 -6.5 28.3 -19.9 30.7 -20.8 0.8 -0.3 1.5 -1.2 1.5 -2 0 -0.8 0.8 -1.4 1.8 -1.4 2.2 0 16.8 -7.9 20 -10.9 1.2 -1.1 2.9 -2.1 3.8 -2.1 2.1 0 9.4 -3.9 9.4 -5 0 -0.6 0.8 -1 1.9 -1 1 0 8.5 -2.9 16.7 -6.4 35.3 -15.1 76.4 -27.5 100.2 -30.2 3.4 -0.3 6.2 -1.1 6.2 -1.6 0 -0.6 2.3 -0.8 5.3 -0.7 2.8 0.2 5.7 0 6.4 -0.4 0.6 -0.4 6.3 -0.4 12.7 -0.1 l11.6 0.7 0 14.6 c0 24.5 -3.8 49.6 -12.1 80.6 -9.9 36.7 -18.2 59.3 -32.9 89 -8.7 17.6 -25.3 46.9 -28.5 50.2 -0.7 0.6 -2.7 3.5 -4.5 6.5 -1.9 2.9 -4.4 6.2 -5.6 7.4 -1.2 1.1 -2.5 3.1 -2.9 4.2 -0.3 1.2 -1.3 2.2 -2.1 2.2 -0.8 0 -1.4 0.6 -1.4 1.3 0 0.8 -0.9 2.4 -2 3.7 -1.1 1.3 -2 2.7 -2 3.2 0 0.4 -0.6 0.8 -1.4 0.8 -0.8 0 -1.7 1.1 -2 2.5 -0.4 1.4 -1.3 2.5 -2.1 2.5 -0.8 0 -2.1 1.6 -2.9 3.5 -0.9 2 -2.6 3.9 -4 4.5 -1.5 0.5 -3.2 2.4 -4 4.5 -0.8 1.9 -2.3 3.8 -3.3 4.1 -2.3 0.8 -23.3 21.5 -23.3 23 0 1.5 -4.2 5.1 -6.5 5.6 -1.1 0.2 -2.5 1.3 -3.1 2.6 -1.5 3 -4.5 6.2 -5.8 6.2 -0.6 0 -1.7 0.9 -2.4 2 -0.7 1.1 -1.8 2 -2.6 2 -0.8 0 -1.6 0.7 -2 1.5 -0.3 0.8 -1.4 1.5 -2.5 1.5 -1 0 -2.1 0.9 -2.4 2 -0.3 1.1 -1.4 2 -2.5 2 -1.1 0 -2.2 0.9 -2.5 2 -0.3 1.1 -1.2 2 -2.1 2 -0.9 0 -1.6 0.5 -1.6 1 0 0.6 -0.7 1 -1.5 1 -0.8 0 -1.5 0.5 -1.5 1 0 0.6 -0.9 1 -2 1 -1.1 0 -2 0.7 -2 1.5 0 0.8 -0.7 1.5 -1.5 1.5 -0.8 0 -1.5 0.5 -1.5 1 0 0.6 -0.4 1 -1 1 -0.5 0 -2 1.1 -3.4 2.5 -1.4 1.4 -3.4 2.5 -4.6 2.5 -1.1 0 -2 0.7 -2 1.5 0 0.8 -0.9 1.5 -2 1.5 -1.1 0 -2 0.5 -2 1 0 0.6 -1.7 1.8 -3.7 2.8 -2.1 0.9 -4.2 2.3 -4.6 3 -0.4 0.6 -1.6 1.2 -2.6 1.2 -1.1 0 -2.1 0.7 -2.5 1.5 -0.3 0.8 -1.5 1.5 -2.6 1.5 -1.1 0 -2 0.4 -2 0.9 0 1 -7.6 4.8 -11.2 5.6 -1.6 0.3 -2.8 1.1 -2.8 1.8 0 1.6 -10.2 6.7 -13.5 6.7 -1.4 0 -2.5 0.5 -2.5 1.1 0 1.2 -12.5 7.1 -24 11.4 -4.1 1.5 -8.8 3.3 -10.5 4 -7.3 3.1 -28.8 9.4 -39.3 11.5 -11.4 2.3 -40.2 7.1 -56.9 9.5 -17.8 2.4 -22.8 2.8 -26.8 1.8z"/>
 </g>
 <g fill="#00b050">
  <path d="M1174.7 1283.4 c-30.7 -4.7 -57.6 -14.3 -107.1 -38.1 -40.6 -19.4 -56.3 -25.6 -72.1 -28.4 -8.8 -1.5 -21.3 -0.6 -29.2 2.1 -6.7 2.3 -16.9 8.4 -21.8 13 -7.4 7 -51.7 23 -78.9 28.5 -19.4 3.9 -29.9 4.9 -50.1 4.9 -27.3 -0.1 -43.2 -3.4 -61 -12.7 -11.1 -5.8 -22.8 -17.4 -27.9 -27.8 -4.7 -9.5 -5.2 -13.4 -3.1 -23.4 0.9 -4.4 2.3 -17.2 3.1 -28.4 1.6 -23.4 3.6 -34.1 9.8 -52.5 7.7 -23 16.7 -42.5 26 -56.5 9.7 -14.4 17.4 -29.9 20.8 -41.6 1.9 -6.5 2.3 -10.3 2.2 -20.5 -0.1 -14.8 -1.7 -21 -12 -46.3 -8.2 -20 -10.4 -28.4 -10.4 -39.8 0 -7.5 0.3 -8.8 1.8 -9.3 7.1 -2.1 129.2 -31 137.8 -32.7 83.7 -15.6 120.2 -21.9 130.8 -22.5 l11.8 -0.7 -0.3 26.2 c-0.3 20.7 -0.7 26.3 -1.8 27 -0.7 0.5 -5 1.6 -9.5 2.6 -44.4 9.3 -75.1 26.1 -84.7 46.2 -3.7 7.8 -3.6 11.9 0.5 20.8 3.4 7.6 14.6 18.5 25.1 24.7 20 11.6 46.7 19.8 80.5 24.5 15.7 2.2 61.1 2.5 77 0.5 54.8 -6.8 98.5 -26.2 110.1 -49 3.3 -6.5 3.3 -15.8 0 -22.5 -10.1 -20.6 -45.8 -38.9 -91.3 -46.7 l-6.6 -1.2 -0.6 -4.6 c-0.3 -2.6 -0.6 -14.4 -0.8 -26.2 l-0.3 -21.5 7 -0.3 c3.9 -0.2 13.5 0.2 21.5 0.8 13.9 1 25 3.5 275.5 62.1 143.6 33.5 287.8 67.3 320.5 75 32.7 7.7 62.4 14.6 66 15.4 9.1 1.9 17.5 3.9 127.3 30.7 95.1 23.1 97.9 23.9 100.4 26.8 3.1 3.7 9.8 7.7 16.1 9.7 3.5 1 32.3 7.3 33.7 7.3 0.1 0 1.4 2.7 2.9 6 3.6 8 4.9 16.6 4.2 27.3 -0.9 13.1 -3.2 20.7 -9.4 31.1 -3 5 -5.7 9.8 -6 10.6 -0.3 0.8 -1.1 2.1 -1.8 3 -0.7 0.8 -2.8 3.5 -4.6 6 -3.4 4.5 -12 10.5 -16.8 11.7 -1.4 0.3 -4.3 1.8 -6.5 3.2 -4.9 3.2 1.3 0.4 -61.5 28.1 -28.9 12.8 -58.8 25.7 -66.5 28.7 -42.2 16.5 -77.1 29.3 -79.7 29.3 -2 0 -8.6 -3.7 -22.1 -12.4 -24.7 -15.8 -33.7 -21.5 -47.2 -29.4 -69.4 -40.7 -138.9 -65.2 -226.2 -79.7 -22 -3.7 -25.6 -3.7 -46.3 0.1 -44.9 8.2 -88.7 26.6 -179.5 75.4 -60 32.3 -98 50.8 -128.3 62.6 -10.9 4.2 -11.8 4.4 -21.5 4.3 -5.6 -0.1 -14.1 -0.7 -19 -1.5z"/>
 </g>
 <g fill="#ff0000">
  <path d="M309.5 1248.1 c-19.2 -7.5 -77.1 -30.7 -128.5 -51.5 -51.4 -20.8 -97.3 -39.2 -102 -40.8 -10.8 -3.8 -26.9 -11.5 -34 -16.3 -7.4 -5.1 -14.8 -12.2 -17.1 -16.7 -2.6 -5.1 -2.6 -15.5 0 -20.6 2.3 -4.6 10 -11.9 17.6 -16.7 14.5 -9.3 8.1 -7.6 227.7 -60.5 180.1 -43.4 212.8 -51.1 212.8 -49.7 0 0.1 0.9 6.7 1.9 14.7 4.5 33.6 5.2 73.9 1.7 98 -1.6 10.7 -6.2 30.7 -7.6 32.5 -0.4 0.6 -1 2.3 -1.4 4 -1.3 5.2 -9.4 20.5 -15.3 28.6 -9.1 12.8 -24.6 26.9 -50.8 46.4 -26.8 20 -46.1 38.1 -55 51.5 -2.8 4.1 -5.3 7.7 -5.7 7.8 -0.5 0.2 -0.8 1 -0.8 1.8 0 3.7 -8.5 1.3 -43.5 -12.5z"/>
 </g>
 <g fill="#80350e">
  <path d="M1038 1535.3 c-7.9 -0.8 -23.3 -3.5 -29.2 -5.2 -8.3 -2.4 -349.2 -140.1 -349.6 -141.2 -0.2 -0.5 -1.2 -0.9 -2.3 -0.9 -1 0 -1.9 -0.4 -1.9 -1 0 -0.5 -1.1 -1 -2.5 -1 -2 0 -2.5 -0.5 -2.5 -2.5 l0 -2.5 5.3 2.1 c2.8 1.1 13.3 5.1 23.2 8.9 9.9 3.8 97.1 37 193.7 73.9 96.7 36.9 176.2 67.1 176.8 67.1 0.5 0 1 0.7 1 1.5 0 1.5 -3 1.7 -12 0.8z"/>
  <path d="M1076 1533.9 c0 -1 120.5 -43.7 383 -135.9 210.7 -74 383 -134.8 383 -135.1 0 -0.8 -30.3 -20.2 -47.5 -30.4 -68.1 -40.5 -138.3 -65.4 -224.3 -79.6 -19.7 -3.2 -20.5 -3.3 -31.4 -2.1 -48.5 5.4 -92.2 23.1 -198.8 80.2 -58.3 31.2 -93.9 48.4 -126.1 60.9 -12.1 4.7 -15.2 4.9 -33.6 2.6 -32.3 -4.2 -61.7 -14.3 -112.8 -38.8 -51.9 -24.8 -64.1 -29.1 -83 -29.1 -13.3 0 -24.4 4.3 -34.8 13.4 -8.5 7.5 -43.3 21.2 -72.2 28.4 -24 6 -32.4 7 -58 7 -16.2 0.1 -26.3 -0.3 -31 -1.2 -37.8 -7.3 -63 -25.2 -74.5 -52.8 l-3.2 -7.7 2.1 -11.1 c1.1 -6.1 2.5 -19 3.1 -28.6 1.6 -26.5 5.5 -43.1 16.6 -71.3 7.8 -19.7 14.4 -32.9 21.4 -42.7 7.7 -10.8 16.4 -28.2 19.1 -38.5 1.6 -5.8 2.1 -10.9 2.1 -18.5 0 -12.8 -2 -20.9 -9.8 -40 -7.6 -18.3 -11.3 -29.8 -12.6 -39 l-1.1 -7.7 -126.9 31.7 c-69.8 17.5 -127 31.9 -127.2 32.1 -0.2 0.2 0.5 6.7 1.5 14.4 8.3 64.4 1.9 116.9 -18.3 152 -13 22.5 -24.6 33.9 -64.7 63.8 -24.4 18.2 -40.5 33.4 -48.9 46 -5.6 8.4 -6.1 9.7 -3.7 9.7 0.8 0 1.5 0.5 1.5 1 0 2.2 -7.2 0.8 -18.7 -3.7 -10.7 -4.2 -12.3 -5.1 -12.3 -7 0 -1.3 0.2 -2.3 0.5 -2.3 0.2 0 3.4 1.1 7.1 2.5 7.7 2.9 8.4 3 8.4 1.1 0 -0.8 0.3 -1.6 0.8 -1.8 0.4 -0.1 2.9 -3.7 5.7 -7.8 8.9 -13.4 28.2 -31.5 55 -51.5 26.2 -19.5 41.7 -33.6 50.8 -46.4 5.9 -8.1 14 -23.4 15.3 -28.6 0.4 -1.7 1 -3.4 1.4 -4 1.4 -1.8 6 -21.8 7.5 -32.5 3.5 -24.1 2.9 -58.5 -1.6 -92 -1 -8 -1.9 -14.7 -1.9 -14.9 0 -0.2 -0.7 -0.1 -1.5 0.3 -1 0.3 -1.5 -0.1 -1.5 -1.3 0 -1.5 1.6 -2.3 8.3 -3.9 50.3 -12.6 275.2 -66.2 277.5 -66.2 3.3 0 4.3 1.6 1.7 2.6 -2.2 0.9 -2 10.3 0.4 19.6 1.1 4.1 4.9 14.7 8.5 23.5 10.9 26.6 12 31.1 12 49.3 0.1 13.3 -0.2 16.6 -2.2 23.5 -3.4 11.7 -11.1 27.3 -20.8 41.6 -9.3 14 -18.3 33.5 -26 56.5 -6.2 18.4 -8.2 29 -9.9 53 -0.8 11.5 -2.2 24 -3 27.7 -1.3 6.4 -1.3 7.1 0.6 12.3 4.8 12.8 16.7 25.8 30.5 33.1 16.7 8.8 33.7 12.5 57.9 12.6 17.4 0.1 28.5 -1.1 47.1 -4.8 27.2 -5.5 71.5 -21.5 78.9 -28.5 4.8 -4.5 15.1 -10.7 21.8 -13 4.4 -1.6 9.5 -2.4 17.3 -2.7 22.7 -1.1 36.6 3.4 90 29 50.2 24.1 76.7 33.5 107.9 38.2 16.6 2.5 20.7 2.1 33.7 -2.9 30.3 -11.8 68.3 -30.3 128.3 -62.6 92.9 -50 136.7 -68.2 182.7 -75.9 21.3 -3.6 26 -3.6 48.8 0.3 88.5 14.9 157 39.1 226.5 79.8 13.5 7.9 22.5 13.6 47.3 29.5 10.6 6.8 19.7 12.1 20.3 11.7 0.7 -0.4 0.9 0.3 0.7 1.7 -0.3 2 -2.1 3 -13.3 7.2 -31.7 11.7 -115.2 42 -160.5 58.2 -52.3 18.7 -67.9 24.2 -245.5 86.8 -159.6 56.3 -209.1 74.2 -249.5 90.2 -26.9 10.6 -45.9 16.9 -66.3 22 -26.6 6.5 -55.7 10.4 -55.7 7.4z"/>
  <path d="M1828 1294.1 c0 -2.1 7.1 -5.1 12.2 -5.1 4.2 0 3.4 1.7 -2.2 4.5 -6.1 3.1 -10 3.3 -10 0.6z"/>
  <path d="M1966 1222.8 c0 -0.7 20.8 -10.5 46.3 -21.7 25.4 -11.2 47.4 -20.9 49 -21.7 2.6 -1.2 2.7 -1.1 2.7 1.5 0 2.6 -1 3.2 -13.7 9.4 -27.8 13.3 -76.9 33.7 -81.3 33.7 -1.7 0 -3 -0.5 -3 -1.2z"/>
  <path d="M2093.7 1158.8 c2.1 -2.9 4.1 -5.4 4.5 -5.6 0.5 -0.2 0.8 -0.8 0.8 -1.3 0 -2 10.5 -18.9 11.7 -18.9 4.3 0 -1.5 15.5 -9.7 25.8 -3.6 4.4 -4.7 5.2 -7.6 5.2 l-3.4 0 3.7 -5.2z"/>
  <path d="M7.3 1117.3 c-5.6 -11.5 -2.9 -21.5 7.4 -28.1 2.6 -1.7 5.4 -3.6 6.1 -4.2 2.3 -2 1.3 4.9 -1.2 8.3 -5.2 6.8 -7.6 13.7 -7.6 22 0 4.2 -0.4 7.7 -0.9 7.7 -0.5 0 -2.2 -2.6 -3.8 -5.7z"/>
  <path d="M2132 1097 c0 -1.6 -0.4 -3 -0.8 -3 -1.2 0 -3.2 -7 -3.2 -10.9 0 -4.2 1.2 -3.9 3.9 1 3 5.3 4.2 15.9 1.7 15.9 -1.1 0 -1.6 -0.9 -1.6 -3z"/>
  <path d="M2108.3 1083.5 c-0.6 -0.9 -6 -2.5 -15.3 -4.4 -22.6 -4.7 -29.8 -7.5 -35.3 -14.1 -1.4 -1.6 -3 -3 -3.6 -3 -0.6 0 -1.1 -0.7 -1.1 -1.5 0 -1 1 -1.5 3.4 -1.5 5 0 38.5 8.4 43.2 10.8 6.5 3.3 10.4 7.7 10.4 11.8 0 3.7 -0.4 4.2 -1.7 1.9z"/>
  <path d="M60 1079.6 c0 -2.3 0.4 -2.6 3.5 -2.6 5.3 0 4.6 1.3 -2.7 4.8 -0.5 0.2 -0.8 -0.8 -0.8 -2.2z"/>
  <path d="M1844 1010.8 c-4.1 -1 -8.6 -2.1 -10 -2.4 -8.8 -1.8 -128.4 -29.8 -132 -31 -2.5 -0.7 -5.8 -1.6 -7.5 -1.8 -1.6 -0.3 -117.5 -27.3 -257.5 -60 -140 -32.8 -255.7 -59.6 -257.2 -59.6 -2.2 0 -2.8 -0.5 -2.8 -2.1 0 -2.4 0.9 -2.4 33.1 1.2 23.6 2.6 34.6 4.7 64.9 12.2 14 3.5 149.8 36.7 301.8 73.8 266.3 65 276.2 67.5 276.2 69.6 0 1.3 -0.3 2.3 -0.7 2.2 -0.5 -0.1 -4.2 -1 -8.3 -2.1z"/>
  <path d="M469 961.7 c0 -0.9 4.3 -2.6 12.3 -4.7 14.4 -3.9 18.7 -4.4 18.7 -2 0 1.2 -3 2.3 -13.2 4.8 -14.6 3.5 -17.8 3.9 -17.8 1.9z"/>
  <path d="M717 902.1 c0 -0.5 0.7 -1.1 1.5 -1.5 0.8 -0.3 1.5 -1.2 1.5 -2.1 0 -0.8 0.2 -1.5 0.5 -1.5 0.3 0 10.2 -1.8 22.1 -4 11.9 -2.2 22 -4 22.5 -4 0.5 0 0.9 0.8 0.9 1.8 0 1.5 -3.6 2.6 -21.7 7 -21.5 5.1 -27.3 6.1 -27.3 4.3z"/>
  <path d="M902 875.6 c0 -2 2.3 -2.7 27.9 -9 15.3 -3.7 34.6 -7.8 42.8 -9.1 17.8 -2.8 49.1 -6 49.9 -5.2 2.4 2.4 -3.4 3.8 -53.7 13 -29.4 5.4 -56.4 10.4 -60.1 11.1 -6.7 1.3 -6.8 1.2 -6.8 -0.8z"/>
 </g>
 <g fill="#3e6906">
  <path d="M1965 1223 c0 -0.5 0.9 -1.4 2 -2 1.1 -0.6 2 -0.8 2 -0.4 0 0.3 0.7 0.1 1.5 -0.6 1.3 -1.1 1.5 -0.8 1.5 1.4 0 2.3 -0.4 2.6 -3.5 2.6 -1.9 0 -3.5 -0.4 -3.5 -1z"/>
  <path d="M1975.5 1218.2 c1.1 -1 2.7 -1.8 3.7 -1.8 1.1 0 1.8 0.8 1.8 1.8 0 1.4 -0.8 1.8 -3.7 1.8 -3.5 0 -3.6 -0.1 -1.8 -1.8z"/>
  <path d="M1984.8 1214.7 c1.2 -0.7 2 -1.6 1.6 -1.9 -0.3 -0.4 0.3 -0.4 1.5 -0.1 3.7 0.9 2.5 3.3 -1.6 3.3 -3.6 -0.1 -3.7 -0.1 -1.5 -1.3z"/>
  <path d="M1994.4 1210.8 c1.9 -0.7 2.4 -1.3 1.6 -1.8 -0.8 -0.5 -0.3 -0.7 1.3 -0.7 1.8 0.2 2.7 0.8 2.7 2 0 1.4 -0.8 1.7 -4.2 1.6 -4.2 -0.1 -4.2 -0.1 -1.4 -1.1z"/>
  <path d="M2003 1207.1 c3.5 -2 6 -2.3 6 -0.7 0 1.2 -1 1.6 -3.7 1.6 -2.6 -0.1 -3.3 -0.3 -2.3 -0.9z"/>
  <path d="M2013.9 1202.5 c4.1 -1.8 4.1 -1.8 4.1 0 0 1.1 -1.1 1.5 -3.7 1.5 l-3.8 -0.1 3.4 -1.4z"/>
  <path d="M2037 1192.3 c0.8 -0.3 2.3 -1 3.3 -1.5 1.2 -0.6 1.7 -0.5 1.7 0.7 0 1 -1 1.5 -3.2 1.4 -1.8 0 -2.6 -0.3 -1.8 -0.6z"/>
  <path d="M2047 1187.5 c3.2 -1.8 4 -1.8 4 0 0 1 -1 1.5 -3.2 1.5 l-3.3 -0.1 2.5 -1.4z"/>
  <path d="M2054.8 1183.7 c1.2 -0.7 2 -1.5 1.8 -1.8 -0.3 -0.3 0.4 -0.5 1.4 -0.5 1.3 0 2 0.7 2 1.8 0 1.4 -0.8 1.8 -3.7 1.8 -3.6 -0.1 -3.7 -0.1 -1.5 -1.3z"/>
  <path d="M2093.8 1160.5 c3 -2.5 4.6 -5.5 2 -3.9 -0.7 0.4 -0.8 0.3 -0.4 -0.5 0.4 -0.6 1.1 -0.9 1.6 -0.6 1.2 0.7 5.1 -4.7 8.9 -12.2 3.4 -6.9 3.9 -8.6 1.5 -5.7 -1.5 1.8 -1.5 1.7 -0.2 -0.6 4.8 -8.2 5.8 -8.8 5.8 -3.7 0 2.1 -1.8 6.1 -5.1 11.7 -2.8 4.7 -5.4 8.7 -5.8 9 -0.3 0.3 -1.6 2.3 -2.7 4.5 -1.8 3.3 -2.8 4.1 -5.5 4.3 l-3.4 0.3 3.3 -2.6z"/>
  <path d="M1854 1013.3 c-0.8 -0.2 -2.2 -0.7 -3 -1 -0.8 -0.4 -2 -0.5 -2.7 -0.4 -0.6 0.1 -1.4 -0.3 -1.8 -0.8 -0.3 -0.6 -1.2 -0.8 -1.9 -0.5 -0.8 0.3 -1.7 0.1 -2 -0.4 -0.3 -0.6 -1.5 -0.8 -2.6 -0.5 -1.2 0.3 -2 0 -2 -0.7 0 -0.7 -0.8 -1 -2 -0.7 -1.1 0.3 -2 0.1 -2 -0.5 0 -0.5 -0.9 -0.6 -2 -0.3 -1.2 0.4 -2 0.2 -2 -0.5 0 -0.6 -1 -0.8 -2.5 -0.4 -1.6 0.4 -2.5 0.2 -2.5 -0.6 0 -0.7 -0.8 -0.9 -2 -0.5 -1.2 0.4 -2 0.2 -2 -0.5 0 -0.7 -0.8 -0.9 -2 -0.5 -1.2 0.4 -2 0.2 -2 -0.5 0 -0.7 -0.8 -0.9 -2 -0.5 -1.2 0.4 -2 0.2 -2 -0.5 0 -0.6 -1 -0.8 -2.6 -0.4 -2.1 0.5 -2.5 0.4 -1.9 -0.6 0.6 -1 0.2 -1.1 -1.9 -0.6 -2 0.5 -2.6 0.4 -2 -0.5 0.5 -0.9 -0.1 -1 -2 -0.5 -2 0.5 -2.6 0.3 -2.1 -0.5 0.5 -0.8 -0.2 -0.9 -2.6 -0.4 -2.7 0.5 -3.1 0.4 -1.9 -0.5 1.2 -0.9 0.8 -1 -2 -0.6 -2.7 0.5 -3.1 0.3 -2 -0.5 1.1 -0.8 0.7 -0.9 -2 -0.5 -2.7 0.5 -3.1 0.3 -2 -0.5 1.1 -0.8 0.7 -0.9 -2 -0.5 -2.7 0.5 -3.1 0.3 -2 -0.5 1.1 -0.8 0.5 -0.9 -2.5 -0.4 -3.1 0.4 -3.7 0.3 -2.5 -0.5 1.2 -0.9 0.7 -1 -2 -0.6 -2.7 0.5 -3.1 0.3 -2 -0.5 1.1 -0.8 0.7 -0.9 -2 -0.5 -1.9 0.3 -2.9 0.2 -2.3 -0.2 0.8 -0.5 -13.2 -4.3 -33.5 -9.2 -19.6 -4.8 -33.4 -8.6 -31.7 -8.8 1.7 -0.1 31.8 6.5 67 14.7 93.3 21.9 86.5 20.2 86.5 22.3 0 1.8 -1.8 2.2 -5 1.1z"/>
  <path d="M1070.5 961.4 c-10.4 -2.3 -20.4 -6.8 -27.1 -12.2 l-5.9 -4.8 0.2 -19.7 c0.2 -12.2 -0.1 -19.7 -0.7 -19.7 -2.1 0 -0.9 -2.8 1.4 -3.4 3 -0.7 3.6 -5.1 3.6 -29.3 0 -15.6 -0.2 -18.3 -1.5 -18.3 -1.2 0 -1.5 -1.8 -1.5 -10 0 -9.1 0.2 -10 1.9 -10 1.8 0 1.9 -1.7 2.5 -39.2 0.3 -21.6 0.9 -65.7 1.2 -98 l0.6 -58.6 -3.2 -1.7 c-8.1 -4.2 -18.2 -6 -44.5 -8 -41.8 -3.2 -88.5 -14.5 -134.5 -32.6 -16.7 -6.5 -51 -23.6 -68.8 -34.3 -89.8 -53.7 -161.7 -130.7 -208.2 -222.7 -29.4 -58.1 -46.8 -118.7 -52.5 -182.6 -1.8 -19.5 -4.8 -124.2 -3.9 -132.3 0.9 -7.3 4.1 -15.8 6.2 -16.4 0.9 -0.2 9 -1 18 -1.7 24.1 -1.7 76.6 -0.7 99.7 2.1 117.3 13.9 223.2 59.3 308.9 132.4 10.3 8.8 35.5 33.6 45.8 45.1 30.7 34.5 59.8 81.1 75.8 121.5 2.3 5.8 4.6 11 5.2 11.5 1.4 1.4 7.7 -5.9 11.3 -13.1 1.5 -3.3 5.2 -11.2 8.1 -17.8 17.1 -38 58.5 -93.1 103.9 -138 81.5 -80.7 191.2 -131.7 308.9 -143.6 69.5 -7 106.2 -6.6 126.4 1.5 l4.2 1.7 0 9.2 c0 16.5 -2 82.7 -3 102.1 -5 92.5 -19.1 152.2 -51.5 218 -45.6 92.6 -121.6 172.7 -213 224.6 -59 33.4 -113.4 50.8 -209 66.9 l-28 4.7 -0.6 13.4 c-0.4 7.4 -1 52 -1.4 99.2 -0.7 76.8 -0.7 85.7 0.7 85.7 2 0 2.8 4.1 2.8 13.6 0 6 -0.3 7.3 -1.7 7.6 -1.5 0.3 -1.7 2.1 -1.5 19.3 0.3 22.1 0.9 27.5 2.8 27.5 0.8 0 1.4 0.8 1.4 1.8 0 0.9 0.5 6.8 1.1 12.9 l1 11.3 -3.1 6.4 c-5.8 12.3 -16.7 21.5 -31.4 26.5 -6.1 2.1 -9.4 2.4 -23.6 2.7 -12.3 0.3 -18.3 0 -23.5 -1.2z m-34.5 -436.4 c0 -2 -0.3 -4 -0.7 -4.4 -0.4 -0.4 -0.6 -3.8 -0.4 -7.7 0.1 -3.8 -0.1 -6.9 -0.6 -6.9 -0.5 0 -0.8 -1.3 -0.5 -3 0.2 -1.6 0.1 -3.8 -0.3 -4.7 -0.4 -1 -0.7 -3.5 -0.6 -5.5 0.2 -2.1 -0.2 -3.8 -0.7 -3.8 -0.4 0 -0.7 -1.3 -0.4 -3 0.2 -1.6 0 -3 -0.5 -3 -0.5 0 -0.8 -1.3 -0.5 -3 0.3 -1.9 0 -3 -0.7 -3 -0.7 0 -0.9 -0.5 -0.6 -1 0.9 -1.4 -1.6 -15 -2.7 -15 -0.5 0 -0.6 -0.4 -0.3 -1 0.6 -1 -4.3 -23.1 -5.4 -24 -0.3 -0.3 -0.7 -1.8 -0.9 -3.3 -0.3 -3.2 -11.1 -35.9 -12.1 -36.7 -0.3 -0.3 -0.7 -1.3 -0.9 -2.2 -0.7 -4 -13.1 -31.9 -14.7 -33 -0.5 -0.4 -0.7 -0.8 -0.2 -0.8 0.9 0 -5.2 -12.4 -6.4 -12.8 -0.5 -0.2 -0.7 -0.8 -0.3 -1.3 0.3 -0.5 0 -0.9 -0.6 -0.9 -0.6 0 -0.8 -0.4 -0.5 -1 0.3 -0.5 0.3 -1 -0.2 -1 -0.4 0 -1.6 -2 -2.6 -4.5 -1.1 -2.5 -2.2 -4.5 -2.6 -4.5 -0.4 0 -1.3 -1.6 -2 -3.5 -0.7 -1.9 -1.6 -3.5 -2 -3.5 -0.4 0 -1.3 -1.6 -2 -3.5 -0.7 -1.9 -1.7 -3.5 -2.2 -3.5 -0.5 0 -0.9 -0.7 -0.9 -1.5 0 -0.8 -0.3 -1.5 -0.7 -1.5 -0.5 0 -1.7 -1.8 -2.7 -4 -1.1 -2.2 -2.3 -4 -2.8 -4 -0.4 0 -0.8 -0.6 -0.8 -1.3 0 -0.7 -0.9 -2.3 -2 -3.5 -1.1 -1.2 -2 -2.6 -2 -3.2 0 -0.5 -0.4 -1 -1 -1 -0.5 0 -1 -0.7 -1 -1.5 0 -0.8 -0.4 -1.5 -1 -1.5 -0.5 0 -1 -0.7 -1 -1.5 0 -0.8 -0.4 -1.5 -0.9 -1.5 -0.5 0 -1.2 -0.8 -1.5 -1.7 -0.3 -1 -1.6 -3 -2.8 -4.5 -1.3 -1.4 -3 -3.6 -3.8 -4.8 -0.8 -1.2 -2.2 -3 -3 -4 -0.8 -1 -2.2 -2.8 -3 -4 -0.8 -1.2 -2.2 -3.1 -3.2 -4.1 -0.9 -1.1 -3.1 -3.8 -4.8 -5.9 -13.1 -16 -41.9 -45.4 -58.5 -59.5 -36.9 -31.5 -79.4 -56.9 -123.7 -74.1 -4.8 -1.9 -9.2 -3.4 -9.7 -3.4 -0.5 0 -2.2 -0.5 -3.8 -1.1 -1.5 -0.6 -2.8 -0.9 -2.9 -0.7 0 0.2 -0.8 -0.3 -1.7 -1.1 -1 -0.7 -1.7 -1.1 -1.7 -0.7 0 0.3 -2.2 -0.3 -5 -1.4 -2.7 -1.1 -5 -1.7 -5 -1.5 0 0.3 -0.9 0.1 -1.9 -0.5 -1.1 -0.5 -3.7 -1.3 -5.8 -1.6 -2.1 -0.3 -4.1 -0.8 -4.5 -1.1 -0.5 -0.2 -1.7 -0.6 -2.8 -0.9 -1.1 -0.2 -3 -0.6 -4.2 -0.9 -1.3 -0.3 -3.6 -0.8 -5.2 -1 -1.5 -0.2 -3.8 -0.7 -5 -1.1 -1.1 -0.4 -3 -0.8 -4.1 -1 -1.1 -0.1 -3.3 -0.5 -5 -0.8 -16.6 -3.3 -49.1 -6.1 -50.1 -4.4 -1.3 2.1 -0.2 30.3 1.6 42.3 5.9 39.2 16.1 78.9 27.4 106.7 5.9 14.6 13.7 32 14.7 32.8 0.4 0.3 2.1 3.4 3.8 6.9 6.5 12.7 31.3 51 37.5 57.7 0.6 0.7 1.8 2 2.6 3.1 12.9 16.2 25.5 30 44 47.8 32.5 31.5 76.2 62.1 119.9 83.9 10.8 5.4 17.7 8.6 37.6 17.1 4.4 1.9 29.1 10.6 31.2 11 1 0.2 1.8 0.4 1.8 0.5 0 0.1 0.7 0.3 1.5 0.5 0.8 0.2 2.6 0.7 4 1 1.4 0.3 3 0.7 3.5 0.8 0.6 0.2 1.6 0.6 2.3 1 0.6 0.5 1.6 0.6 2.1 0.2 0.5 -0.3 1.2 -0.1 1.6 0.4 0.3 0.5 1.3 1 2.3 0.9 0.9 0 2.8 0.3 4.2 0.7 1.4 0.4 3.6 0.9 5 1.1 1.4 0.2 3.9 0.7 5.5 1 4.5 0.9 9.5 1.5 14.2 1.8 2.4 0.1 4.5 0.5 4.8 0.8 0.3 0.2 7.5 0.4 16 0.4 l15.5 0 0 -3.6z m123 -1 c0 -0.6 1.5 -0.8 4 -0.4 2.8 0.5 4 0.3 4 -0.5 0 -0.8 1.1 -1 3.5 -0.5 2.4 0.4 3.5 0.2 3.5 -0.5 0 -0.8 1.1 -1 3.5 -0.5 2.4 0.4 3.5 0.2 3.5 -0.5 0 -0.8 1.1 -1 3.5 -0.5 2.4 0.4 3.5 0.2 3.5 -0.5 0 -0.8 1.1 -1 3.5 -0.5 2.4 0.4 3.5 0.3 3.5 -0.6 0 -0.8 1 -0.9 3 -0.5 2 0.4 3 0.3 3 -0.5 0 -0.8 1 -0.9 3 -0.5 2 0.4 3 0.3 3 -0.5 0 -0.8 1 -0.9 3 -0.5 2 0.4 3 0.3 3 -0.5 0 -0.8 0.9 -1 2.5 -0.6 1.4 0.4 2.5 0.2 2.5 -0.2 0 -0.5 2 -0.8 4.5 -0.8 2.9 0.1 4.9 -0.4 5.4 -1.3 0.5 -0.8 1.6 -1.1 2.6 -0.7 3 1.1 38.9 -9.2 41 -11.9 0.6 -0.7 2.2 -1.3 3.5 -1.3 3.3 0 26.8 -10 29.2 -12.4 1 -1 2.7 -1.8 3.8 -1.8 2.9 0 13 -5.2 13 -6.7 0 -0.7 1.2 -1.5 2.8 -1.8 3.9 -0.8 11.2 -4.6 10.7 -5.6 -0.3 -0.4 0.6 -0.9 2 -1.1 1.4 -0.2 2.4 -0.7 2.3 -1.3 -0.2 -0.5 1.1 -1.2 2.7 -1.5 1.7 -0.4 2.9 -1.1 2.7 -1.8 -0.1 -0.7 0.5 -1.2 1.3 -1.2 2.5 0 7.6 -3 7 -4 -0.4 -0.6 0.5 -1 1.9 -1 1.6 0 2.6 -0.6 2.6 -1.5 0 -0.8 0.8 -1.5 1.8 -1.5 2.3 0 6.4 -2.9 5.7 -4.1 -0.4 -0.5 0.3 -0.9 1.5 -0.9 1.2 0 1.8 -0.4 1.5 -1 -0.3 -0.5 0.3 -1 1.4 -1 1.2 0 2.1 -0.7 2.1 -1.5 0 -0.8 0.9 -1.5 2.1 -1.5 1.1 0 1.7 -0.4 1.4 -1 -0.3 -0.5 0.3 -1 1.5 -1 1.2 0 1.8 -0.4 1.5 -1 -0.3 -0.5 0.4 -1 1.5 -1 1.3 0 2.4 -0.8 2.7 -2 0.3 -1.1 1.4 -2 2.5 -2 1.1 0 2.2 -0.8 2.5 -1.9 0.3 -1.1 1.5 -2.1 2.7 -2.3 1.1 -0.2 2 -0.9 1.8 -1.6 -0.1 -0.6 0.6 -1.2 1.7 -1.2 2.1 0 4.5 -2.3 3.4 -3.3 -0.3 -0.4 0.3 -0.7 1.4 -0.7 2.1 0 4.9 -2.6 6.7 -6.2 0.6 -1.3 2 -2.4 3.1 -2.6 2.3 -0.5 6.5 -4.1 6.5 -5.6 0 -1.4 21.2 -22.6 22.6 -22.6 1.4 0 3.5 -2.4 3.8 -4.3 0.3 -2.1 2.6 -4.7 4.1 -4.7 1.6 0 3.6 -2.4 3.9 -4.6 0.2 -1 1.1 -2.3 2.2 -2.8 2.4 -1.4 3.4 -2.8 2.7 -3.9 -0.3 -0.4 0.4 -1.1 1.6 -1.4 1.9 -0.5 2.5 -1.5 2.2 -3.5 0 -0.5 0.6 -0.8 1.4 -0.8 1.4 0 2 -1.2 1.6 -3.3 -0.1 -0.5 0.8 -1.1 1.9 -1.4 1.8 -0.5 2.4 -1.5 2.1 -3.5 0 -0.4 0.8 -1.2 1.9 -1.8 1.1 -0.6 1.8 -1.5 1.5 -2.1 -0.4 -0.5 0.1 -0.9 0.9 -0.9 0.9 0 1.6 -0.4 1.6 -1 0 -2.1 0.2 -2.5 1.6 -3.3 0.8 -0.5 1.2 -1.2 0.9 -1.7 -0.3 -0.4 0.2 -1.1 1.1 -1.4 0.8 -0.3 1.3 -1 1 -1.5 -0.3 -0.5 0.1 -1.2 1 -1.5 0.8 -0.3 1.2 -1 0.9 -1.6 -0.3 -0.5 0.1 -1 0.9 -1 1.5 0 2 -1.1 1.4 -2.6 -0.2 -0.3 0.5 -1 1.5 -1.5 0.9 -0.6 1.5 -1.4 1.2 -2 -0.4 -0.5 -0.1 -0.9 0.5 -0.9 0.6 0 0.9 -0.4 0.6 -0.9 -0.3 -0.5 0.1 -1.2 1 -1.5 0.8 -0.3 1.2 -1 0.9 -1.6 -0.3 -0.5 -0.1 -1 0.5 -1 0.6 0 0.9 -0.4 0.6 -0.9 -0.3 -0.5 0.1 -1.2 1 -1.5 0.8 -0.3 1.2 -1 0.9 -1.6 -0.3 -0.5 -0.1 -1 0.5 -1 0.6 0 0.9 -0.4 0.6 -0.9 -0.3 -0.5 0.1 -1.2 1 -1.5 0.9 -0.4 1.4 -0.9 1.1 -1.2 -0.3 -0.3 0.3 -1.4 1.4 -2.5 1.1 -1.1 1.7 -2.4 1.4 -2.9 -0.4 -0.6 -0.1 -1 0.5 -1 0.6 0 0.8 -0.4 0.5 -1 -0.3 -0.5 -0.1 -1 0.5 -1 0.6 0 0.8 -0.4 0.5 -1 -0.3 -0.5 -0.1 -1 0.5 -1 0.6 0 0.9 -0.4 0.6 -0.9 -0.3 -0.5 0.1 -1.2 1 -1.5 0.8 -0.3 1.2 -1 0.9 -1.6 -0.3 -0.5 -0.1 -1 0.5 -1 0.6 0 0.8 -0.4 0.5 -1 -0.3 -0.5 -0.1 -1 0.5 -1 0.6 0 0.8 -0.4 0.5 -1 -0.3 -0.5 -0.1 -1 0.5 -1 0.6 0 0.8 -0.4 0.5 -1 -0.3 -0.5 -0.1 -1 0.5 -1 0.6 0 0.8 -0.4 0.5 -1 -0.3 -0.5 -0.1 -1 0.5 -1 0.6 0 0.8 -0.5 0.5 -1 -0.3 -0.5 -0.1 -1 0.5 -1 0.6 0 0.8 -0.5 0.5 -1 -0.3 -0.5 -0.1 -1 0.5 -1 0.6 0 0.8 -0.4 0.5 -1 -0.3 -0.5 -0.1 -1 0.5 -1 0.6 0 0.8 -0.4 0.5 -1 -0.3 -0.5 -0.1 -1 0.5 -1 0.6 0 0.8 -0.4 0.5 -1 -0.3 -0.5 -0.1 -1 0.5 -1 0.6 0 0.8 -0.4 0.5 -1 -0.3 -0.5 -0.1 -1 0.5 -1 0.6 0 0.8 -0.4 0.5 -1 -0.3 -0.5 -0.1 -1 0.5 -1 0.7 0 1 -0.7 0.6 -1.5 -0.3 -0.8 -0.1 -1.5 0.5 -1.5 0.6 0 0.7 -0.4 0.4 -1 -0.3 -0.5 -0.1 -1 0.5 -1 0.6 0 0.8 -0.4 0.5 -1 -0.3 -0.5 -0.1 -1 0.5 -1 0.6 0 0.8 -0.4 0.5 -1 -0.3 -0.5 -0.1 -1 0.5 -1 0.6 0 0.8 -0.4 0.5 -1 -0.3 -0.6 -0.1 -1 0.5 -1 0.6 0 0.8 -0.5 0.5 -1 -0.3 -0.6 -0.1 -1 0.5 -1 0.7 0 1 -0.7 0.6 -1.5 -0.3 -0.8 -0.1 -1.5 0.5 -1.5 0.6 0 0.7 -0.4 0.4 -1 -0.3 -0.5 -0.1 -1 0.5 -1 0.7 0 1 -0.6 0.8 -1.2 -0.3 -0.7 0.2 -1.9 0.9 -2.7 0.8 -0.7 1.2 -2 0.9 -2.7 -0.3 -0.8 -0.1 -1.4 0.5 -1.4 0.6 0 0.9 -0.7 0.5 -1.5 -0.3 -0.8 -0.1 -1.5 0.5 -1.5 0.6 0 0.7 -0.4 0.4 -1 -0.3 -0.5 -0.1 -1 0.5 -1 0.7 0 1 -0.7 0.6 -1.5 -0.3 -0.8 -0.1 -1.5 0.5 -1.5 0.6 0 0.7 -0.5 0.4 -1 -0.3 -0.6 -0.1 -1 0.5 -1 0.7 0 1 -0.7 0.6 -1.5 -0.3 -0.8 -0.1 -1.5 0.5 -1.5 0.6 0 0.9 -0.7 0.5 -1.5 -0.3 -0.8 -0.1 -1.5 0.5 -1.5 0.6 0 0.9 -0.7 0.5 -1.5 -0.3 -0.8 -0.2 -1.5 0.3 -1.5 1.1 0 3.3 -7.8 2.6 -9 -0.3 -0.6 -0.1 -1 0.5 -1 0.7 0 1 -0.7 0.6 -1.5 -0.3 -0.8 -0.1 -1.5 0.5 -1.5 0.6 0 0.9 -0.7 0.5 -1.5 -0.3 -0.8 -0.1 -1.5 0.5 -1.5 0.6 0 0.9 -0.7 0.5 -1.5 -0.3 -0.8 0 -1.5 0.5 -1.5 0.6 0 0.9 -0.9 0.6 -2 -0.3 -1.1 -0.1 -2 0.5 -2 0.6 0 0.8 -0.9 0.5 -2 -0.3 -1.1 -0.1 -2 0.5 -2 0.6 0 0.8 -0.7 0.4 -1.5 -0.3 -0.8 0 -1.5 0.5 -1.5 0.6 0 0.9 -0.9 0.6 -2 -0.3 -1.1 -0.1 -2 0.5 -2 0.6 0 0.8 -0.9 0.5 -2 -0.3 -1.1 -0.1 -2 0.5 -2 0.6 0 0.8 -0.7 0.4 -1.5 -0.3 -0.8 0 -1.5 0.5 -1.5 0.6 0 0.9 -0.9 0.6 -2 -0.3 -1.1 -0.1 -2 0.5 -2 0.6 0 0.8 -0.9 0.5 -2 -0.3 -1.1 -0.1 -2 0.5 -2 0.6 0 0.8 -1.1 0.6 -2.5 -0.3 -1.4 -0.1 -2.5 0.5 -2.5 0.5 0 0.7 -0.9 0.4 -2 -0.3 -1.1 -0.1 -2 0.5 -2 0.6 0 0.8 -1.1 0.6 -2.5 -0.3 -1.4 -0.1 -2.5 0.5 -2.5 0.5 0 0.7 -1.1 0.5 -2.5 -0.3 -1.4 -0.1 -2.5 0.5 -2.5 0.5 0 0.7 -1.3 0.4 -3 -0.4 -1.9 -0.2 -3 0.4 -3 0.7 0 0.9 -1.2 0.7 -3 -0.3 -1.7 0 -3 0.5 -3 0.5 0 0.7 -1.7 0.4 -4 -0.3 -2.5 -0.1 -4 0.5 -4 0.7 0 0.9 -1.8 0.5 -5 -0.4 -2.9 -0.2 -5 0.3 -5 0.6 0 1 -5.6 1 -13.4 l0 -13.4 -8.7 -0.4 c-4.9 -0.2 -9.4 0 -10.1 0.5 -0.7 0.5 -3.5 0.7 -6.2 0.4 -2.8 -0.3 -5 -0.2 -5 0.2 0 0.5 -2.8 1.2 -6.2 1.5 -23.8 2.7 -64.9 15.1 -100.2 30.2 -8.2 3.5 -15.7 6.4 -16.7 6.4 -1.1 0 -1.9 0.4 -1.9 1 0 1.3 -7.4 5 -10 5 -1.2 0 -1.9 0.4 -1.6 0.9 0.3 0.5 -2.2 2.3 -5.7 4.1 -3.4 1.9 -7.9 4.4 -9.9 5.7 -2.1 1.3 -4.7 2.3 -5.8 2.3 -1.1 0 -2 0.6 -2 1.4 0 0.8 -0.7 1.7 -1.5 2 -2.4 0.9 -22.2 14.3 -30.7 20.8 -4.2 3.2 -8.5 5.8 -9.4 5.8 -1 0 -1.4 0.3 -1.1 0.7 1.1 1 -1.3 3.3 -3.4 3.3 -1.1 0 -1.9 0.7 -1.9 1.6 0 0.9 -1.3 2.1 -2.8 2.6 -1.6 0.6 -3.3 2.1 -3.8 3.2 -0.5 1.2 -2.4 2.8 -4.1 3.6 -1.8 0.8 -3.3 1.9 -3.3 2.3 0 1.2 -27.1 27.7 -28.3 27.7 -0.6 0 -0.7 0.3 -0.4 0.6 0.9 1 -5.2 8.4 -6.9 8.4 -0.8 0 -1.3 0.3 -1.2 0.8 0.4 1.2 -4.5 7.2 -5.9 7.2 -0.7 0 -1.2 0.3 -1.2 0.8 0.3 2 -0.2 3.2 -1.6 3.2 -0.8 0 -1.4 0.3 -1.3 0.8 0.3 1.5 -1.5 4.2 -2.8 4.2 -0.8 0 -1.3 0.3 -1.3 0.8 0.3 2 -0.2 3.2 -1.6 3.2 -0.8 0 -1.4 0.3 -1.4 0.8 0.3 2 -0.2 3.2 -1.6 3.2 -0.8 0 -1.4 0.3 -1.3 0.8 0.3 1.5 -1.5 4.2 -2.9 4.2 -0.8 0 -1.1 0.5 -0.8 1 0.3 0.6 -0.1 1.3 -0.9 1.6 -0.9 0.3 -1.3 1 -1 1.5 0.3 0.5 -0.2 1.2 -1 1.5 -0.9 0.3 -1.3 1 -1 1.5 0.3 0.5 -0.2 1.2 -1 1.5 -0.9 0.3 -1.3 1 -1 1.5 0.3 0.5 -0.2 1.2 -1 1.5 -0.9 0.3 -1.3 1 -1 1.5 0.3 0.5 -0.2 1.2 -1 1.5 -0.9 0.3 -1.3 1 -1 1.5 0.3 0.5 -0.2 1.2 -1 1.5 -0.9 0.3 -1.3 1 -1 1.5 0.3 0.5 -0.2 1.2 -1 1.5 -0.9 0.3 -1.3 1 -1 1.5 0.3 0.5 -0.2 1.2 -1 1.5 -0.9 0.3 -1.3 1 -1.1 1.5 0.3 0.4 -0.3 1.7 -1.5 2.9 -1.1 1.1 -1.8 2 -1.5 2 0.3 0 -0.1 1.4 -1 3 -0.9 1.7 -2 3 -2.6 3 -0.6 0 -0.8 0.4 -0.4 1 0.3 0.5 -0.3 1.8 -1.4 2.9 -1.1 1.1 -1.7 2.2 -1.4 2.5 0.4 0.3 0.1 0.6 -0.6 0.6 -0.7 0 -1 0.4 -0.6 1 0.3 0.5 -0.3 1.8 -1.4 2.9 -1.1 1.1 -1.7 2.2 -1.4 2.5 0.4 0.3 0 0.6 -0.7 0.6 -0.7 0 -1.1 0.3 -0.7 0.6 0.7 0.7 -6.1 14.7 -7.4 15.2 -0.5 0.2 -0.7 0.8 -0.3 1.3 0.3 0.5 0 0.9 -0.6 0.9 -0.6 0 -0.8 0.5 -0.5 1 0.3 0.6 0.1 1 -0.5 1 -0.6 0 -0.8 0.5 -0.5 1 0.3 0.6 0.1 1 -0.5 1 -0.6 0 -0.8 0.5 -0.5 1 0.3 0.6 0.1 1 -0.5 1 -0.6 0 -0.8 0.5 -0.5 1 0.3 0.6 0.1 1 -0.5 1 -0.6 0 -0.8 0.5 -0.5 1 0.3 0.6 0.1 1 -0.5 1 -0.6 0 -0.8 0.5 -0.5 1 0.3 0.6 0.2 1 -0.4 1 -0.6 0 -0.8 0.6 -0.5 1.4 0.3 0.7 -0.2 2 -1 2.9 -0.8 0.8 -1.3 1.7 -1 2 0.7 0.6 -1.7 5.7 -2.7 5.7 -0.5 0 -0.6 0.6 -0.3 1.4 0.3 0.7 -0.2 2 -1 2.9 -0.8 0.8 -1.3 1.7 -1 2 0.7 0.6 -1.7 5.7 -2.7 5.7 -0.5 0 -0.6 0.6 -0.3 1.4 0.3 0.7 -0.1 2 -0.9 2.7 -0.7 0.8 -1.2 2 -0.9 2.7 0.2 0.6 -0.1 1.2 -0.7 1.2 -0.6 0 -0.8 0.7 -0.5 1.5 0.4 0.8 0.1 1.5 -0.6 1.5 -0.6 0 -0.9 0.4 -0.6 0.9 0.7 1.1 -2.3 10.1 -3.5 10.1 -0.4 0 -0.6 0.7 -0.3 1.5 0.4 0.8 0.1 1.5 -0.5 1.5 -0.6 0 -0.8 0.7 -0.5 1.5 0.4 0.8 0.1 1.5 -0.5 1.5 -0.6 0 -0.8 0.7 -0.5 1.5 0.4 0.8 0.1 1.5 -0.5 1.5 -0.6 0 -0.8 0.7 -0.5 1.5 0.4 0.8 0.2 1.5 -0.2 1.5 -0.5 0 -1 1.4 -1 3.1 -0.1 1.7 -0.5 3.4 -1 3.8 -0.5 0.3 -1 1.9 -1.1 3.5 -0.1 1.6 -0.6 3.2 -1 3.5 -0.4 0.3 -0.9 1.9 -1 3.5 -0.1 1.6 -0.6 3.2 -1 3.5 -0.4 0.3 -0.9 1.9 -1 3.6 -0.1 1.6 -0.7 3.1 -1.2 3.3 -0.5 0.2 -0.7 1.2 -0.4 2.2 0.3 1.1 0.1 2 -0.4 2 -0.6 0 -0.8 1.1 -0.5 2.5 0.2 1.4 0 2.5 -0.6 2.5 -0.6 0 -0.8 0.9 -0.5 2 0.3 1.1 0.1 2 -0.4 2 -0.6 0 -0.8 1.1 -0.5 2.5 0.2 1.4 0 2.5 -0.6 2.5 -0.6 0 -0.8 0.9 -0.5 2 0.3 1.1 0.1 2 -0.4 2 -0.6 0 -0.8 1.1 -0.5 2.5 0.2 1.4 0 2.5 -0.6 2.5 -0.6 0 -0.8 0.9 -0.5 2 0.3 1.1 0 2 -0.6 2 -0.5 0 -0.8 0.7 -0.5 1.5 0.4 0.8 0.3 2.3 -0.1 3.3 -0.5 0.9 -0.7 2.7 -0.6 3.9 0.1 1.1 -0.2 2.4 -0.7 2.7 -0.5 0.3 -0.7 1.6 -0.5 3 0.3 1.3 0 2.7 -0.6 3 -0.5 0.4 -0.8 1.3 -0.4 2.1 0.3 0.8 0.2 2.3 -0.2 3.3 -0.4 0.9 -0.7 2.9 -0.6 4.5 0.2 1.5 -0.2 2.7 -0.7 2.7 -0.6 0 -0.8 0.9 -0.5 2 0.3 1.1 0.2 2.8 -0.2 3.7 -1.6 3.6 0 9.1 2.8 9.6 4.1 0.8 5.7 0.7 5.7 -0.3z"/>
  <path d="M898 876 c0 -1.7 0.7 -2 4 -2 4.3 0 5.2 1.3 2.1 3 -3.3 1.7 -6.1 1.2 -6.1 -1z"/>
  <path d="M911.8 875.3 c-3.3 -0.8 -2 -3.3 1.7 -3.3 1.9 0 3.5 0.5 3.5 1 0 0.6 -0.9 1 -2.1 1 -1.1 0 -1.7 0.5 -1.4 1 0.3 0.6 0.5 0.9 0.3 0.9 -0.2 -0.1 -1.1 -0.3 -2 -0.6z"/>
 </g>
 <g fill="#000000">
  <path d="M1039.5 1552.3 c-27.9 -3.3 -31.6 -4.5 -102.9 -33.2 -35.2 -14.2 -171.6 -69.3 -303.1 -122.4 -131.4 -53.1 -259 -104.6 -283.5 -114.5 -24.5 -9.8 -93.7 -37.8 -153.9 -62.1 -60.2 -24.3 -114.4 -46 -120.5 -48.3 -33.8 -12.4 -54.7 -27 -63.3 -44.5 -3.3 -6.8 -3.7 -8.4 -3.7 -14.9 0.1 -14.3 9.6 -27.7 28.3 -40.2 18.8 -12.6 6 -9 200.6 -55.8 97.4 -23.4 195.2 -46.9 217.5 -52.4 22.3 -5.4 83 -20.1 135 -32.5 52 -12.5 113.6 -27.3 137 -33 42.8 -10.5 201.9 -48.8 220.5 -53.1 21 -4.9 55.2 -9.5 82.3 -11 l12.2 -0.7 0 10 0 10.1 -7.2 0.6 c-4 0.3 -11.1 0.8 -15.8 1.1 -11.9 0.8 -32.2 3.2 -46.9 5.5 -10.9 1.8 -59.1 13 -63.1 14.7 -0.8 0.4 -2.4 0.8 -3.5 0.9 -1.1 0.1 -30.1 7 -64.5 15.3 -738.1 177.8 -772.6 186.1 -779.6 189.5 -20 9.5 -32.4 21.4 -32.4 31.1 0 10.1 12.7 22 34.5 32.5 5.5 2.7 13.8 6.2 18.5 7.8 4.7 1.6 54.2 21.4 110 43.9 55.8 22.6 109.4 44.1 119 47.8 9.6 3.7 20.2 8 23.5 9.5 7.1 3.3 282.2 114.4 297.4 120.1 15.9 6 28.5 11.1 29.6 11.9 2.2 1.7 344.4 139.4 350.5 141.1 18 5.1 45 7.1 67 5 36.5 -3.5 69.9 -12.4 116 -30.6 40.4 -16 89.9 -33.9 249.5 -90.2 177.6 -62.6 193.2 -68.1 245.5 -86.8 115.3 -41.2 234.3 -85.3 269.5 -100 8.9 -3.7 11.5 -4.7 13 -5.1 6 -1.5 65.3 -27.2 79.2 -34.4 10.1 -5.2 10.9 -5.6 18 -10.2 2.3 -1.6 4.7 -2.8 5.3 -2.8 3 0 13.7 -6.9 19.3 -12.5 10.7 -10.6 18.1 -27.8 20.2 -47 1.3 -12 -3.3 -27.2 -10.5 -34.3 -5.2 -5.2 -11.2 -7.6 -31 -12.2 -14.4 -3.4 -216.4 -52.5 -224.2 -54.5 -1 -0.3 -2.7 -0.7 -3.8 -1 -1.1 -0.3 -2.8 -0.7 -3.7 -1 -1 -0.2 -128 -31.3 -282.3 -69 -154.3 -37.7 -288.6 -70.5 -298.5 -73 -30.1 -7.5 -54.9 -10.7 -101.2 -13.1 l-13.3 -0.7 0 -5.1 c0 -2.8 -0.3 -7.5 -0.7 -10.4 l-0.6 -5.3 7.9 0.6 c4.3 0.3 14.9 1 23.4 1.5 34.5 2.3 65.3 6.7 87.5 12.5 7.2 1.8 197.7 48.4 423.5 103.5 353.4 86.2 411.5 100.6 418 103.7 12.5 6.1 22.2 17.7 27.6 33.3 2.6 7.5 2.6 31.4 0 41 -6.8 25.4 -19.7 44.7 -37.1 55.5 -3.8 2.3 -8.1 4.6 -9.4 5 -1.4 0.4 -4.7 2.2 -7.5 4 -29.3 18.7 -142.1 63.8 -322.6 129 -8 2.9 -37.7 13.5 -66 23.5 -28.3 10 -56.2 20 -62 22.2 -5.8 2.2 -20.2 7.3 -32 11.3 -11.8 4.1 -29.1 10.1 -38.5 13.5 -18.5 6.7 -54.5 19.4 -117 41.2 -57.1 20 -109.7 38.7 -112 39.8 -1.1 0.5 -7.6 2.9 -14.5 5.3 -37.1 13 -98.9 35.9 -123 45.7 -31.4 12.6 -76.2 23.8 -107.9 27 -9.6 0.9 -36.8 1.2 -43.6 0.3z"/>
  <path d="M1068 1027.4 c-52 -4.8 -91.4 -18.2 -111.7 -38 -9.1 -8.9 -12.6 -15.8 -13.1 -26 -0.4 -6.4 -0.1 -7.9 2.7 -13.7 9.6 -20.1 38.6 -36 84.4 -46.2 12 -2.7 11 -4.5 10.2 17.8 l-0.7 19.3 4.8 4.3 c5.8 4.9 16.3 10.2 25.4 12.8 10.1 2.7 34.1 2.5 43.5 -0.4 14.6 -4.7 26.5 -14.3 32.2 -26.3 2.7 -5.4 2.8 -6.4 2.2 -13.7 -0.4 -4.3 -0.8 -9.8 -0.8 -12.1 l-0.1 -4.4 4.3 0.7 c37.2 5.9 71 20.3 86.1 36.6 14.9 16.1 14.9 34.1 -0.2 49.5 -17.3 17.8 -52.8 31.7 -97.3 37.9 -11 1.6 -61 2.9 -71.9 1.9z"/>
 </g>
</svg>